<?xml version="1.0" encoding="utf-8"?>
<!-- Generator: Adobe Illustrator 19.1.0, SVG Export Plug-In . SVG Version: 6.00 Build 0)  -->
<svg version="1.1" id="Layer_1" xmlns="http://www.w3.org/2000/svg" xmlns:xlink="http://www.w3.org/1999/xlink" x="0px" y="0px"
	 viewBox="0 0 15.1 9.4" style="enable-background:new 0 0 15.1 9.4;" xml:space="preserve">
<style type="text/css">
	.st0{fill:#FFFFFF;}
</style>
<g id="behance_2_">
	<g>
		<path class="st0" d="M6.1,4.3c0.8-0.4,1.3-1,1.3-1.9c0-1.7-1.2-2.4-3-2.4H0v9.3h4.5c1.7,0,3.3-0.8,3.3-2.7
			C7.8,5.5,7.2,4.6,6.1,4.3z M1.9,1.6h2.1c0.7,0,1.4,0.2,1.4,1.1c0,0.8-0.5,1.1-1.2,1.1H1.9V1.6z M4.2,7.7H1.9V5.2h2.4
			c0.9,0,1.5,0.4,1.5,1.3C5.7,7.5,5,7.7,4.2,7.7z M11.8,2.3c-2,0-3.4,1.5-3.4,3.5c0,2.1,1.3,3.5,3.4,3.5c1.5,0,2.6-0.4,3.1-1.9h-1.6
			C13.2,7.9,12.6,8,11.9,8c-1,0-1.6-0.4-1.6-1.5h4.8C15.2,4.4,14.1,2.3,11.8,2.3z M10.2,5.5c0-0.5,0.4-1.8,1.5-1.8
			c0.9,0,1.3,0.8,1.5,1.8H10.2z M14,0.9H9.3v0.9H14L14,0.9L14,0.9z"/>
	</g>
</g>
</svg>
