<?xml version="1.0" encoding="utf-8"?>
<!-- Generator: Adobe Illustrator 19.1.0, SVG Export Plug-In . SVG Version: 6.00 Build 0)  -->
<svg version="1.1" id="Layer_1" xmlns="http://www.w3.org/2000/svg" xmlns:xlink="http://www.w3.org/1999/xlink" x="0px" y="0px"
	 viewBox="0 0 15 15" style="enable-background:new 0 0 15 15;" xml:space="preserve">
<style type="text/css">
	.st0{fill:#FFFFFF;}
</style>
<g id="dribbble_2_">
	<g>
		<path class="st0" d="M7.5,0C3.4,0,0,3.4,0,7.5C0,11.6,3.4,15,7.5,15S15,11.6,15,7.5C15,3.4,11.6,0,7.5,0z M12.4,3.6
			c0.8,1,1.3,2.3,1.3,3.7C12.1,7,10.6,7,9.4,7.2C9.2,6.8,9,6.5,8.9,6.1C10.2,5.6,11.4,4.8,12.4,3.6z M7.5,1.2c1.5,0,3,0.6,4.1,1.5
			c-0.9,1.1-2,1.8-3.2,2.3C7.5,3.6,6.7,2.3,6,1.4C6.5,1.3,7,1.2,7.5,1.2z M4.8,1.8c0.6,0.8,1.5,2.1,2.3,3.6C5.4,5.9,3.4,6,1.4,6.1
			C1.8,4.2,3.1,2.6,4.8,1.8z M1.2,7.5c0-0.1,0-0.1,0-0.2c0,0,0,0,0,0c2.2,0,4.4-0.1,6.4-0.7C7.8,6.9,8,7.2,8.1,7.5
			C5.5,8.2,3.9,10,2.8,11.6C1.8,10.5,1.2,9.1,1.2,7.5z M7.5,13.7c-1.4,0-2.7-0.5-3.8-1.3c1.1-1.6,2.5-3.2,4.9-3.8
			c0.6,1.4,1,3,1.3,4.6C9.1,13.6,8.3,13.7,7.5,13.7z M11,12.6c-0.3-1.5-0.7-2.9-1.2-4.3c1.1-0.1,2.4-0.1,3.8,0.2
			C13.4,10.2,12.4,11.7,11,12.6z"/>
	</g>
</g>
</svg>
