<?xml version="1.0" encoding="utf-8"?>
<!-- Generator: Adobe Illustrator 19.1.0, SVG Export Plug-In . SVG Version: 6.00 Build 0)  -->
<svg version="1.1" id="Layer_1" xmlns="http://www.w3.org/2000/svg" xmlns:xlink="http://www.w3.org/1999/xlink" x="0px" y="0px"
	 viewBox="-290.9 410 31.9 23.9" style="enable-background:new -290.9 410 31.9 23.9;" xml:space="preserve">
<style type="text/css">
	.st0{fill:#FFFFFF;}
</style>
<g>
	<g>
		<path class="st0" d="M-274.9,425.8c-0.8,0-1.6-0.3-2.2-0.8l-8.9-7.8c-0.6-0.5-0.7-1.5-0.1-2.1c0.5-0.6,1.5-0.7,2.1-0.1l8.9,7.8
			c0.1,0.1,0.3,0.1,0.4,0l8.9-7.8c0.6-0.5,1.6-0.5,2.1,0.1c0.5,0.6,0.5,1.6-0.1,2.1l-8.9,7.8C-273.3,425.5-274.1,425.8-274.9,425.8z
			"/>
	</g>
	<g>
		<path class="st0" d="M-261.1,432.9c-0.3,0-0.7-0.1-0.9-0.3l-7.1-5.8c-0.6-0.5-0.7-1.5-0.2-2.1c0.5-0.6,1.5-0.7,2.1-0.2l7.1,5.8
			c0.6,0.5,0.7,1.5,0.2,2.1C-260.2,432.7-260.7,432.9-261.1,432.9z"/>
	</g>
	<g>
		<path class="st0" d="M-288.6,432.9c-0.4,0-0.9-0.2-1.2-0.6c-0.5-0.6-0.4-1.6,0.2-2.1l7.1-5.8c0.6-0.5,1.6-0.4,2.1,0.2
			c0.5,0.6,0.4,1.6-0.2,2.1l-7.1,5.8C-287.9,432.8-288.3,432.9-288.6,432.9z"/>
	</g>
	<g>
		<path class="st0" d="M-263.4,433.9h-23c-2.5,0-4.4-1.9-4.4-4.3v-15.3c0-2.4,2-4.3,4.4-4.3h23c2.5,0,4.5,1.9,4.5,4.3v15.3
			C-258.9,432-260.9,433.9-263.4,433.9z M-286.4,413c-0.8,0-1.4,0.6-1.4,1.3v15.3c0,0.7,0.6,1.3,1.4,1.3h23c0.8,0,1.5-0.6,1.5-1.3
			v-15.3c0-0.7-0.6-1.3-1.5-1.3H-286.4z"/>
	</g>
</g>
</svg>
