<?xml version="1.0" encoding="utf-8"?>
<!-- Generator: Adobe Illustrator 19.1.0, SVG Export Plug-In . SVG Version: 6.00 Build 0)  -->
<svg version="1.1" id="Layer_1" xmlns="http://www.w3.org/2000/svg" xmlns:xlink="http://www.w3.org/1999/xlink" x="0px" y="0px"
	 viewBox="548 -283.1 1691 1407" style="enable-background:new 548 -283.1 1691 1407;" xml:space="preserve">
<style type="text/css">
	.st0{fill:#FFFFFF;}
</style>
<g id="packet">
	<path class="st0" d="M2239-117.9c0-91.2-74-165.2-165.2-165.2H713.2c-91.2,0-165.2,74-165.2,165.2V958.7
		c0,91.2,74,165.2,165.2,165.2h1360.6c91.2,0,165.2-74,165.2-165.2V-117.9z M714.1-151.1h1361.1c18.2,0,32.9,14.5,32.9,32.7v1.4
		l-690.1,690.2c-8.4,8.4-18.2,9.7-23.3,9.7s-14.9-1.3-23.4-9.7L681-117v-1.3C681-136.6,695.8-151.1,714.1-151.1z M2075.1,991.9
		H714.1c-18.2,0-33.1-15.1-33.1-33.3V69.9l596.8,596.8c31.2,31.2,72.7,48.4,116.8,48.4c44.1,0,85.5-17.2,116.7-48.4L2108,69.9v888.6
		C2108,976.8,2093.3,991.9,2075.1,991.9z"/>
</g>
<g id="Layer_1_1_">
</g>
</svg>
