<svg id="points" xmlns="http://www.w3.org/2000/svg" viewBox="0 0 804.49 75.17"><defs><style>.cls-1{fill:#242c5d;}</style></defs><title>graveyard_stones</title><path class="cls-1" d="M73.85,71h-2V32.46a30.88,30.88,0,0,1,61.76,0V55.76h-2V32.46a28.87,28.87,0,0,0-57.75,0V71Z"/><path class="cls-1" d="M80.59,40.1V38.86h5.08V40.1H80.59Z"/><path class="cls-1" d="M80.59,37.67V36.41L83,35a9.18,9.18,0,0,1,.87-0.43h0s-0.55.06-.87,0.06H80.59V33.37h5.08v1.25L83.31,36a9.06,9.06,0,0,1-.87.43h0s0.55-.06.87-0.06h2.37v1.24H80.59Z"/><path class="cls-1" d="M81,29.59l0.32-1.2,3.89,1,0.53-2,1,0.27-0.85,3.21Z"/><path class="cls-1" d="M83.49,22.77a2.57,2.57,0,0,1,3.58-1,2.66,2.66,0,1,1-2.66,4.6A2.57,2.57,0,0,1,83.49,22.77Zm3.56,2.06a1.43,1.43,0,0,0-.63-2A1.37,1.37,0,1,0,85,25.26,1.43,1.43,0,0,0,87.05,24.83Z"/><path class="cls-1" d="M85.74,19.5l1-.93,2.64,1.49c0.29,0.16.7,0.46,0.7,0.46h0s-0.27-.43-0.42-0.73l-1.33-2.73,1-.91,2.19,4.92L90.53,22Z"/><path class="cls-1" d="M90.43,15.47l1.05-.66,2.7,4.31-1.05.66Z"/><path class="cls-1" d="M93.22,13.78l1.18-.42,2.13,1.76a9.07,9.07,0,0,1,.69.67h0S97,15.29,96.9,15l-0.8-2.24,1.17-.42L99,17.12l-1.18.42-2.13-1.75A9.07,9.07,0,0,1,95,15.12h0s0.24,0.5.35,0.8l0.8,2.23-1.17.42Z"/><path class="cls-1" d="M101.88,11.69a2.8,2.8,0,0,1,2,.59l-0.55,1a2,2,0,0,0-1.26-.41,1.35,1.35,0,0,0-1.43,1.5,1.44,1.44,0,0,0,1.52,1.47,1.74,1.74,0,0,0,1-.42l0-.39-0.72,0,0-1.06,1.82-.08,0.13,2.87-1,0V16.66c0-.11,0-0.21,0-0.21h0a2.11,2.11,0,0,1-1.31.5,2.49,2.49,0,0,1-2.61-2.52A2.57,2.57,0,0,1,101.88,11.69Z"/><path class="cls-1" d="M108.49,12.39l1.26,0.49-0.08,2.27c0,0.35-.06.87-0.06,0.87h0s0.32-.43.54-0.69l1.46-1.74,1.26,0.49L111.43,19l-1.16-.45L111,16.33a7.58,7.58,0,0,1,.31-0.8h0s-0.35.44-.57,0.69l-1,1.18-1-.38,0-1.56c0-.34,0-0.9,0-0.9h0a7.61,7.61,0,0,1-.31.8l-1,2.08L106.27,17Z"/><path class="cls-1" d="M115,15.45l2.52,1.95-0.65.84-1.54-1.19-0.56.73L116,18.73l-0.65.84-1.23-.95-0.59.76,1.62,1.25-0.65.85-2.6-2Z"/><path class="cls-1" d="M119.26,19l0.79,1.09L118.75,22c-0.2.28-.53,0.7-0.53,0.7h0s0.5-.19.83-0.29l2.17-.66L122,22.82l-3.87,3.32-0.73-1,1.76-1.47a7.61,7.61,0,0,1,.69-0.5h0l-0.86.27-1.5.43L116.88,23l0.88-1.3c0.19-.28.52-0.73,0.52-0.73h0a7.6,7.6,0,0,1-.69.5l-1.94,1.22-0.73-1Z"/><path class="cls-1" d="M124,27.48a2.57,2.57,0,0,1-1.72,3.29,2.66,2.66,0,0,1-1.53-5.09A2.57,2.57,0,0,1,124,27.48ZM120,28.67a1.43,1.43,0,0,0,1.85.88,1.37,1.37,0,1,0-.79-2.63A1.43,1.43,0,0,0,120,28.67Z"/><path class="cls-1" d="M124.85,32v1.77a2.63,2.63,0,0,1-.12,1,1.48,1.48,0,0,1-1.48.94,1.55,1.55,0,0,1-1.39-.76h0a2.86,2.86,0,0,1-.31.19l-1.78,1V34.78l1.71-.9V33.29h-1.71V32h5.08Zm-2.3,1.78a0.58,0.58,0,0,0,.63.65c0.38,0,.61-0.14.61-0.77V33.29h-1.24v0.54Z"/><path class="cls-1" d="M121.85,37.85l3-1.68v1.41l-1.22.58c-0.35.16-.73,0.31-0.73,0.31h0s0.38,0.14.73,0.31l1.22,0.57v1.41l-3-1.68h-2.08V37.85h2.08Z"/><path class="cls-1" d="M87.55,44.13L89.65,52c0.15,0.59.23,1.14,0.23,1.14h0a7.45,7.45,0,0,1,.2-1.14l2-7.87h1.55L90.82,54.86H89.07l-1.85-7c-0.18-.68-0.32-1.52-0.32-1.52h0s-0.14.84-.32,1.52l-1.85,7H82.95L80.21,44.13h1.55L83.66,52a10.47,10.47,0,0,1,.2,1.14h0A11.52,11.52,0,0,1,84.12,52l2.1-7.87h1.34Z"/><path class="cls-1" d="M100.3,43.95a5.41,5.41,0,0,1,5.5,5.47,5.51,5.51,0,1,1-11,0A5.42,5.42,0,0,1,100.3,43.95Zm0,9.71a4.05,4.05,0,0,0,4-4.24,4,4,0,1,0-7.92,0A4.07,4.07,0,0,0,100.3,53.66Z"/><path class="cls-1" d="M108,44.13h3.28a5.42,5.42,0,0,1,2,.24,3.19,3.19,0,0,1-.12,5.81v0a3.06,3.06,0,0,1,.32.49l2.28,4.16H114l-2.26-4.27h-2.29v4.27H108V44.13Zm3.66,5.15a1.78,1.78,0,0,0,1.9-1.95,1.76,1.76,0,0,0-.85-1.66,3,3,0,0,0-1.47-.24h-1.73v3.85h2.16Z"/><path class="cls-1" d="M117.72,44.13h1.5v4.51h1.6l2.71-4.51h1.66l-3.12,5.09v0l3.31,5.61h-1.7l-2.86-4.92h-1.6v4.92h-1.5V44.13Z"/><path class="cls-1" d="M100.77,28.56a2.57,2.57,0,0,1,2.66,2.6,2.66,2.66,0,0,1-5.32,0A2.57,2.57,0,0,1,100.77,28.56Zm0,4.12a1.43,1.43,0,0,0,1.37-1.52,1.37,1.37,0,1,0-2.74,0A1.43,1.43,0,0,0,100.77,32.68Z"/><path class="cls-1" d="M104.27,28.64h3.11v1.07h-1.87v1.07h1.55v1.07h-1.55v1.88h-1.24V28.64Z"/><path class="cls-1" d="M124.29,71.84h0l-37.67,0a0.8,0.8,0,0,1-.79-0.68,13.78,13.78,0,0,1,.47-5.46,9.86,9.86,0,0,0-1.11,1.65A0.8,0.8,0,0,1,83.66,67a12.46,12.46,0,0,0-3.53-8.6,27.63,27.63,0,0,1,1,8,0.8,0.8,0,0,1-1.56.21A6.21,6.21,0,0,0,79,65.29a15.31,15.31,0,0,1,.5,5.82,0.8,0.8,0,0,1,0,.16,0.81,0.81,0,0,1-.76.55H-40.93a0.8,0.8,0,0,1-.8-0.8,0.8,0.8,0,0,1,.8-0.8H77.93c0.08-1.57,0-5.46-2.54-8.08a0.8,0.8,0,0,1,.88-1.3,9.37,9.37,0,0,1,3.09,2.29A18,18,0,0,0,77.43,56a0.8,0.8,0,0,1,1.1-1.09,14.88,14.88,0,0,1,6.54,9.69,7.35,7.35,0,0,1,2.58-2,0.8,0.8,0,0,1,1,1.07,15.84,15.84,0,0,0-1.35,6.55l36.23,0a8.72,8.72,0,0,0-1.71-5.84,0.8,0.8,0,0,1-.11-0.87,0.79,0.79,0,0,1,.75-0.45,15.32,15.32,0,0,1,4.23.74,11.56,11.56,0,0,1,9.57-11,0.81,0.81,0,0,1,.77.35,0.8,0.8,0,0,1,0,.85c-1.69,2.9-2.23,6.85-2.39,9.46a6.66,6.66,0,0,1,5-1.44,0.8,0.8,0,0,1,.54,1.28,13.88,13.88,0,0,0-3,6.88H161.1a0.8,0.8,0,0,1,0,1.6H136.41a0.8,0.8,0,0,1-.8-0.73c0-.14-0.26-3.22,2.42-7.4a4,4,0,0,0-3.42,2.82,0.8,0.8,0,0,1-1.57-.21c0-.29-0.24-6.5,1.86-11.45-2.37.84-6.53,3.29-6.62,10.12a0.8,0.8,0,0,1-1.18.7,10.57,10.57,0,0,0-3.08-.87,10.37,10.37,0,0,1,1.06,6.33A0.8,0.8,0,0,1,124.29,71.84Z"/><path class="cls-1" d="M173.17,71h-2V32.46a30.88,30.88,0,0,1,61.76,0V55.76h-2V32.46a28.87,28.87,0,0,0-57.75,0V71Z"/><path class="cls-1" d="M179.91,40.1V38.86H185V40.1h-5.08Z"/><path class="cls-1" d="M179.91,37.67V36.41L182.29,35a9.18,9.18,0,0,1,.87-0.43h0s-0.55.06-.87,0.06h-2.37V33.37H185v1.25L182.63,36a9.06,9.06,0,0,1-.87.43h0s0.55-.06.87-0.06H185v1.24h-5.08Z"/><path class="cls-1" d="M180.28,29.59l0.32-1.2,3.89,1,0.53-2,1,0.27-0.85,3.21Z"/><path class="cls-1" d="M182.81,22.77a2.57,2.57,0,0,1,3.58-1,2.66,2.66,0,0,1-2.66,4.6A2.57,2.57,0,0,1,182.81,22.77Zm3.56,2.06a1.43,1.43,0,0,0-.63-2,1.37,1.37,0,1,0-1.37,2.38A1.43,1.43,0,0,0,186.37,24.83Z"/><path class="cls-1" d="M185.06,19.5l1-.93,2.64,1.49c0.29,0.16.7,0.46,0.7,0.46h0s-0.27-.43-0.42-0.73l-1.33-2.73,1-.91,2.19,4.92-0.94.89Z"/><path class="cls-1" d="M189.75,15.47l1.05-.66,2.7,4.31-1.05.66Z"/><path class="cls-1" d="M192.54,13.78l1.18-.42,2.13,1.76a9.07,9.07,0,0,1,.69.67h0s-0.24-.5-0.35-0.8l-0.8-2.24,1.17-.42,1.72,4.79-1.18.42L195,15.79a9.07,9.07,0,0,1-.69-0.67h0s0.24,0.5.35,0.8l0.8,2.23-1.17.42Z"/><path class="cls-1" d="M201.2,11.69a2.8,2.8,0,0,1,2,.59l-0.55,1a2,2,0,0,0-1.26-.41,1.35,1.35,0,0,0-1.43,1.5,1.44,1.44,0,0,0,1.52,1.47,1.74,1.74,0,0,0,1-.42l0-.39-0.72,0,0-1.06,1.82-.08,0.13,2.87-1,0V16.66c0-.11,0-0.21,0-0.21h0a2.11,2.11,0,0,1-1.31.5,2.49,2.49,0,0,1-2.61-2.52A2.57,2.57,0,0,1,201.2,11.69Z"/><path class="cls-1" d="M207.81,12.39l1.26,0.49L209,15.15c0,0.35-.06.87-0.06,0.87h0s0.32-.43.54-0.69l1.46-1.74,1.26,0.49L210.75,19l-1.16-.45,0.68-2.19a7.58,7.58,0,0,1,.31-0.8h0s-0.35.44-.57,0.69l-1,1.18L208,17l0-1.56c0-.34,0-0.9,0-0.9h0a7.61,7.61,0,0,1-.31.8l-1,2.08L205.59,17Z"/><path class="cls-1" d="M214.37,15.45l2.52,1.95-0.65.84-1.54-1.19-0.56.73,1.23,0.95-0.65.84-1.23-.95-0.59.76,1.62,1.25-0.65.85-2.6-2Z"/><path class="cls-1" d="M218.58,19l0.79,1.09L218.07,22c-0.2.28-.53,0.7-0.53,0.7h0s0.5-.19.83-0.29l2.17-.66,0.79,1.09-3.87,3.32-0.73-1,1.76-1.47a7.61,7.61,0,0,1,.69-0.5h0l-0.86.27-1.5.43L216.2,23l0.88-1.3c0.19-.28.52-0.73,0.52-0.73h0a7.6,7.6,0,0,1-.69.5L215,22.67l-0.73-1Z"/><path class="cls-1" d="M223.31,27.48a2.57,2.57,0,0,1-1.72,3.29,2.66,2.66,0,0,1-1.53-5.09A2.57,2.57,0,0,1,223.31,27.48Zm-3.94,1.18a1.43,1.43,0,0,0,1.85.88,1.37,1.37,0,1,0-.79-2.63A1.43,1.43,0,0,0,219.37,28.67Z"/><path class="cls-1" d="M224.17,32v1.77a2.63,2.63,0,0,1-.12,1,1.48,1.48,0,0,1-1.48.94,1.55,1.55,0,0,1-1.39-.76h0a2.86,2.86,0,0,1-.31.19l-1.78,1V34.78l1.71-.9V33.29h-1.71V32h5.08Zm-2.3,1.78a0.58,0.58,0,0,0,.63.65c0.38,0,.61-0.14.61-0.77V33.29h-1.24v0.54Z"/><path class="cls-1" d="M221.17,37.85l3-1.68v1.41l-1.22.58c-0.35.16-.73,0.31-0.73,0.31h0s0.38,0.14.73,0.31l1.22,0.57v1.41l-3-1.68h-2.08V37.85h2.08Z"/><path class="cls-1" d="M186.87,44.13L189,52c0.15,0.59.23,1.14,0.23,1.14h0a7.45,7.45,0,0,1,.2-1.14l2-7.87H193l-2.81,10.73h-1.75l-1.85-7c-0.18-.68-0.32-1.52-0.32-1.52h0s-0.14.84-.32,1.52l-1.85,7h-1.75l-2.74-10.73h1.55L183,52a10.47,10.47,0,0,1,.2,1.14h0a11.52,11.52,0,0,1,.23-1.14l2.1-7.87h1.34Z"/><path class="cls-1" d="M199.62,43.95a5.41,5.41,0,0,1,5.5,5.47,5.51,5.51,0,1,1-11,0A5.42,5.42,0,0,1,199.62,43.95Zm0,9.71a4.05,4.05,0,0,0,4-4.24,4,4,0,1,0-7.92,0A4.07,4.07,0,0,0,199.62,53.66Z"/><path class="cls-1" d="M207.31,44.13h3.28a5.42,5.42,0,0,1,2,.24,3.19,3.19,0,0,1-.12,5.81v0a3.06,3.06,0,0,1,.32.49l2.28,4.16h-1.7l-2.26-4.27h-2.29v4.27h-1.5V44.13ZM211,49.28a1.78,1.78,0,0,0,1.9-1.95,1.76,1.76,0,0,0-.85-1.66,3,3,0,0,0-1.47-.24h-1.73v3.85H211Z"/><path class="cls-1" d="M217,44.13h1.5v4.51h1.6l2.71-4.51h1.66l-3.12,5.09v0l3.31,5.61H223l-2.86-4.92h-1.6v4.92H217V44.13Z"/><path class="cls-1" d="M200.09,28.56a2.57,2.57,0,0,1,2.66,2.6,2.66,2.66,0,0,1-5.32,0A2.57,2.57,0,0,1,200.09,28.56Zm0,4.12a1.43,1.43,0,0,0,1.37-1.52,1.37,1.37,0,1,0-2.74,0A1.43,1.43,0,0,0,200.09,32.68Z"/><path class="cls-1" d="M203.59,28.64h3.11v1.07h-1.87v1.07h1.55v1.07h-1.55v1.88h-1.24V28.64Z"/><path class="cls-1" d="M223.61,71.84h0l-37.67,0a0.8,0.8,0,0,1-.79-0.68,13.78,13.78,0,0,1,.47-5.46,9.86,9.86,0,0,0-1.11,1.65A0.8,0.8,0,0,1,183,67a12.46,12.46,0,0,0-3.53-8.6,27.63,27.63,0,0,1,1,8,0.8,0.8,0,0,1-1.56.21,6.21,6.21,0,0,0-.56-1.25,15.31,15.31,0,0,1,.5,5.82,0.8,0.8,0,0,1,0,.16,0.81,0.81,0,0,1-.76.55H152.76a0.8,0.8,0,0,1,0-1.6h24.49c0.08-1.57,0-5.46-2.54-8.08a0.8,0.8,0,0,1,.88-1.3,9.37,9.37,0,0,1,3.09,2.29A18,18,0,0,0,176.75,56a0.8,0.8,0,0,1,1.1-1.09,14.88,14.88,0,0,1,6.54,9.69,7.35,7.35,0,0,1,2.58-2,0.8,0.8,0,0,1,1,1.07,15.84,15.84,0,0,0-1.35,6.55l36.23,0a8.72,8.72,0,0,0-1.71-5.84,0.8,0.8,0,0,1-.11-0.87,0.79,0.79,0,0,1,.75-0.45,15.32,15.32,0,0,1,4.23.74,11.56,11.56,0,0,1,9.57-11,0.81,0.81,0,0,1,.77.35,0.8,0.8,0,0,1,0,.85c-1.69,2.9-2.23,6.85-2.39,9.46a6.66,6.66,0,0,1,5-1.44,0.8,0.8,0,0,1,.54,1.28,13.88,13.88,0,0,0-3,6.88h23.86a0.8,0.8,0,0,1,0,1.6H235.73a0.8,0.8,0,0,1-.8-0.73c0-.14-0.26-3.22,2.42-7.4a4,4,0,0,0-3.42,2.82,0.8,0.8,0,0,1-1.57-.21c0-.29-0.24-6.5,1.86-11.45-2.37.84-6.53,3.29-6.62,10.12a0.8,0.8,0,0,1-1.18.7,10.57,10.57,0,0,0-3.08-.87,10.37,10.37,0,0,1,1.06,6.33A0.8,0.8,0,0,1,223.61,71.84Z"/><path class="cls-1" d="M272.49,71h-2V32.46a30.88,30.88,0,0,1,61.76,0V55.76h-2V32.46a28.87,28.87,0,0,0-57.75,0V71Z"/><path class="cls-1" d="M279.23,40.1V38.86h5.08V40.1h-5.08Z"/><path class="cls-1" d="M279.23,37.67V36.41L281.61,35a9.18,9.18,0,0,1,.87-0.43h0s-0.55.06-.87,0.06h-2.37V33.37h5.08v1.25L281.95,36a9.06,9.06,0,0,1-.87.43h0s0.55-.06.87-0.06h2.37v1.24h-5.08Z"/><path class="cls-1" d="M279.6,29.59l0.32-1.2,3.89,1,0.53-2,1,0.27-0.85,3.21Z"/><path class="cls-1" d="M282.12,22.77a2.57,2.57,0,0,1,3.58-1,2.66,2.66,0,1,1-2.66,4.6A2.57,2.57,0,0,1,282.12,22.77Zm3.56,2.06a1.43,1.43,0,0,0-.63-2,1.37,1.37,0,1,0-1.37,2.38A1.43,1.43,0,0,0,285.69,24.83Z"/><path class="cls-1" d="M284.37,19.5l1-.93L288,20.06c0.29,0.16.7,0.46,0.7,0.46h0s-0.27-.43-0.42-0.73L287,17.06l1-.91,2.19,4.92-0.94.89Z"/><path class="cls-1" d="M289.07,15.47l1.05-.66,2.7,4.31-1.05.66Z"/><path class="cls-1" d="M291.86,13.78l1.18-.42,2.13,1.76a9.07,9.07,0,0,1,.69.67h0s-0.24-.5-0.35-0.8l-0.8-2.24,1.17-.42,1.72,4.79-1.18.42-2.13-1.75a9.07,9.07,0,0,1-.69-0.67h0s0.24,0.5.35,0.8l0.8,2.23-1.17.42Z"/><path class="cls-1" d="M300.52,11.69a2.8,2.8,0,0,1,2,.59l-0.55,1a2,2,0,0,0-1.26-.41,1.35,1.35,0,0,0-1.43,1.5,1.44,1.44,0,0,0,1.52,1.47,1.74,1.74,0,0,0,1-.42l0-.39-0.72,0L301,14l1.82-.08L303,16.76l-1,0V16.66c0-.11,0-0.21,0-0.21h0a2.11,2.11,0,0,1-1.31.5A2.49,2.49,0,0,1,298,14.43,2.57,2.57,0,0,1,300.52,11.69Z"/><path class="cls-1" d="M307.13,12.39l1.26,0.49-0.08,2.27c0,0.35-.06.87-0.06,0.87h0s0.32-.43.54-0.69l1.46-1.74,1.26,0.49L310.07,19l-1.16-.45,0.68-2.19a7.58,7.58,0,0,1,.31-0.8h0s-0.35.44-.57,0.69l-1,1.18-1-.38,0-1.56c0-.34,0-0.9,0-0.9h0a7.61,7.61,0,0,1-.31.8l-1,2.08L304.91,17Z"/><path class="cls-1" d="M313.69,15.45l2.52,1.95-0.65.84L314,17.05l-0.56.73,1.23,0.95-0.65.84-1.23-.95-0.59.76,1.62,1.25-0.65.85-2.6-2Z"/><path class="cls-1" d="M317.9,19l0.79,1.09L317.39,22c-0.2.28-.53,0.7-0.53,0.7h0s0.5-.19.83-0.29l2.17-.66,0.79,1.09-3.87,3.32-0.73-1,1.76-1.47a7.61,7.61,0,0,1,.69-0.5h0l-0.86.27-1.5.43L315.52,23l0.88-1.3c0.19-.28.52-0.73,0.52-0.73h0a7.6,7.6,0,0,1-.69.5l-1.94,1.22-0.73-1Z"/><path class="cls-1" d="M322.63,27.48a2.57,2.57,0,0,1-1.72,3.29,2.66,2.66,0,0,1-1.53-5.09A2.57,2.57,0,0,1,322.63,27.48Zm-3.94,1.18a1.43,1.43,0,0,0,1.85.88,1.37,1.37,0,1,0-.79-2.63A1.43,1.43,0,0,0,318.69,28.67Z"/><path class="cls-1" d="M323.49,32v1.77a2.63,2.63,0,0,1-.12,1,1.48,1.48,0,0,1-1.48.94A1.55,1.55,0,0,1,320.5,35h0a2.86,2.86,0,0,1-.31.19l-1.78,1V34.78l1.71-.9V33.29H318.4V32h5.08Zm-2.3,1.78a0.58,0.58,0,0,0,.63.65c0.38,0,.61-0.14.61-0.77V33.29h-1.24v0.54Z"/><path class="cls-1" d="M320.49,37.85l3-1.68v1.41l-1.22.58c-0.35.16-.73,0.31-0.73,0.31h0s0.38,0.14.73,0.31l1.22,0.57v1.41l-3-1.68H318.4V37.85h2.08Z"/><path class="cls-1" d="M286.19,44.13l2.1,7.87c0.15,0.59.23,1.14,0.23,1.14h0a7.45,7.45,0,0,1,.2-1.14l2-7.87h1.55l-2.81,10.73h-1.75l-1.85-7c-0.18-.68-0.32-1.52-0.32-1.52h0s-0.14.84-.32,1.52l-1.85,7h-1.75l-2.74-10.73h1.55L282.3,52a10.47,10.47,0,0,1,.2,1.14h0a11.52,11.52,0,0,1,.23-1.14l2.1-7.87h1.34Z"/><path class="cls-1" d="M298.94,43.95a5.41,5.41,0,0,1,5.5,5.47,5.51,5.51,0,1,1-11,0A5.42,5.42,0,0,1,298.94,43.95Zm0,9.71a4.05,4.05,0,0,0,4-4.24,4,4,0,1,0-7.92,0A4.07,4.07,0,0,0,298.94,53.66Z"/><path class="cls-1" d="M306.62,44.13h3.28a5.42,5.42,0,0,1,2,.24,3.19,3.19,0,0,1-.12,5.81v0a3.06,3.06,0,0,1,.32.49l2.28,4.16h-1.7l-2.26-4.27h-2.29v4.27h-1.5V44.13Zm3.66,5.15a1.78,1.78,0,0,0,1.9-1.95,1.76,1.76,0,0,0-.85-1.66,3,3,0,0,0-1.47-.24h-1.73v3.85h2.16Z"/><path class="cls-1" d="M316.36,44.13h1.5v4.51h1.6l2.71-4.51h1.66l-3.12,5.09v0L324,54.86h-1.7l-2.86-4.92h-1.6v4.92h-1.5V44.13Z"/><path class="cls-1" d="M299.41,28.56a2.57,2.57,0,0,1,2.66,2.6,2.66,2.66,0,0,1-5.32,0A2.57,2.57,0,0,1,299.41,28.56Zm0,4.12a1.43,1.43,0,0,0,1.37-1.52,1.37,1.37,0,1,0-2.74,0A1.43,1.43,0,0,0,299.41,32.68Z"/><path class="cls-1" d="M302.91,28.64H306v1.07h-1.87v1.07h1.55v1.07h-1.55v1.88h-1.24V28.64Z"/><path class="cls-1" d="M322.93,71.84h0l-37.67,0a0.8,0.8,0,0,1-.79-0.68,13.78,13.78,0,0,1,.47-5.46,9.86,9.86,0,0,0-1.11,1.65A0.8,0.8,0,0,1,282.3,67a12.46,12.46,0,0,0-3.53-8.6,27.63,27.63,0,0,1,1,8,0.8,0.8,0,0,1-1.56.21,6.21,6.21,0,0,0-.56-1.25,15.31,15.31,0,0,1,.5,5.82,0.8,0.8,0,0,1,0,.16,0.81,0.81,0,0,1-.76.55H252.07a0.8,0.8,0,1,1,0-1.6h24.49c0.08-1.57,0-5.46-2.54-8.08a0.8,0.8,0,0,1,.88-1.3A9.37,9.37,0,0,1,278,63.12,18,18,0,0,0,276.07,56a0.8,0.8,0,0,1,1.1-1.09,14.88,14.88,0,0,1,6.54,9.69,7.35,7.35,0,0,1,2.58-2,0.8,0.8,0,0,1,1,1.07A15.84,15.84,0,0,0,286,70.21l36.23,0a8.72,8.72,0,0,0-1.71-5.84,0.8,0.8,0,0,1-.11-0.87,0.79,0.79,0,0,1,.75-0.45,15.32,15.32,0,0,1,4.23.74,11.56,11.56,0,0,1,9.57-11,0.81,0.81,0,0,1,.77.35,0.8,0.8,0,0,1,0,.85c-1.69,2.9-2.23,6.85-2.39,9.46a6.66,6.66,0,0,1,5-1.44,0.8,0.8,0,0,1,.54,1.28,13.88,13.88,0,0,0-3,6.88h23.86a0.8,0.8,0,1,1,0,1.6H335a0.8,0.8,0,0,1-.8-0.73c0-.14-0.26-3.22,2.42-7.4a4,4,0,0,0-3.42,2.82,0.8,0.8,0,0,1-1.57-.21c0-.29-0.24-6.5,1.86-11.45-2.37.84-6.53,3.29-6.62,10.12a0.8,0.8,0,0,1-1.18.7,10.57,10.57,0,0,0-3.08-.87,10.37,10.37,0,0,1,1.06,6.33A0.8,0.8,0,0,1,322.93,71.84Z"/><path class="cls-1" d="M371.8,71h-2V32.46a30.88,30.88,0,0,1,61.76,0V55.76h-2V32.46a28.87,28.87,0,0,0-57.75,0V71Z"/><path class="cls-1" d="M378.55,40.1V38.86h5.08V40.1h-5.08Z"/><path class="cls-1" d="M378.55,37.67V36.41L380.93,35a9.18,9.18,0,0,1,.87-0.43h0s-0.55.06-.87,0.06h-2.37V33.37h5.08v1.25L381.27,36a9.06,9.06,0,0,1-.87.43h0s0.55-.06.87-0.06h2.37v1.24h-5.08Z"/><path class="cls-1" d="M378.92,29.59l0.32-1.2,3.89,1,0.53-2,1,0.27-0.85,3.21Z"/><path class="cls-1" d="M381.44,22.77a2.57,2.57,0,0,1,3.58-1,2.66,2.66,0,1,1-2.66,4.6A2.57,2.57,0,0,1,381.44,22.77ZM385,24.83a1.43,1.43,0,0,0-.63-2A1.37,1.37,0,1,0,383,25.26,1.43,1.43,0,0,0,385,24.83Z"/><path class="cls-1" d="M383.69,19.5l1-.93,2.64,1.49c0.29,0.16.7,0.46,0.7,0.46h0s-0.27-.43-0.42-0.73l-1.33-2.73,1-.91,2.19,4.92-0.94.89Z"/><path class="cls-1" d="M388.39,15.47l1.05-.66,2.7,4.31-1.05.66Z"/><path class="cls-1" d="M391.18,13.78l1.18-.42,2.13,1.76a9.07,9.07,0,0,1,.69.67h0s-0.24-.5-0.35-0.8l-0.8-2.24,1.17-.42,1.72,4.79-1.18.42-2.13-1.75a9.07,9.07,0,0,1-.69-0.67h0s0.24,0.5.35,0.8l0.8,2.23-1.17.42Z"/><path class="cls-1" d="M399.84,11.69a2.8,2.8,0,0,1,2,.59l-0.55,1a2,2,0,0,0-1.26-.41,1.35,1.35,0,0,0-1.43,1.5,1.44,1.44,0,0,0,1.52,1.47,1.74,1.74,0,0,0,1-.42l0-.39-0.72,0,0-1.06,1.82-.08,0.13,2.87-1,0V16.66c0-.11,0-0.21,0-0.21h0a2.11,2.11,0,0,1-1.31.5,2.49,2.49,0,0,1-2.61-2.52A2.57,2.57,0,0,1,399.84,11.69Z"/><path class="cls-1" d="M406.44,12.39l1.26,0.49-0.08,2.27c0,0.35-.06.87-0.06,0.87h0s0.32-.43.54-0.69l1.46-1.74,1.26,0.49L409.39,19l-1.16-.45,0.68-2.19a7.58,7.58,0,0,1,.31-0.8h0s-0.35.44-.57,0.69l-1,1.18-1-.38,0-1.56c0-.34,0-0.9,0-0.9h0a7.61,7.61,0,0,1-.31.8l-1,2.08L404.22,17Z"/><path class="cls-1" d="M413,15.45l2.52,1.95-0.65.84-1.54-1.19-0.56.73L414,18.73l-0.65.84-1.23-.95-0.59.76,1.62,1.25-0.65.85-2.6-2Z"/><path class="cls-1" d="M417.22,19L418,20.1,416.71,22c-0.2.28-.53,0.7-0.53,0.7h0s0.5-.19.83-0.29l2.17-.66L420,22.82l-3.87,3.32-0.73-1,1.76-1.47a7.61,7.61,0,0,1,.69-0.5h0l-0.86.27-1.5.43L414.84,23l0.88-1.3c0.19-.28.52-0.73,0.52-0.73h0a7.6,7.6,0,0,1-.69.5l-1.94,1.22-0.73-1Z"/><path class="cls-1" d="M421.95,27.48a2.57,2.57,0,0,1-1.72,3.29,2.66,2.66,0,0,1-1.53-5.09A2.57,2.57,0,0,1,421.95,27.48ZM418,28.67a1.43,1.43,0,0,0,1.85.88,1.37,1.37,0,1,0-.79-2.63A1.43,1.43,0,0,0,418,28.67Z"/><path class="cls-1" d="M422.81,32v1.77a2.63,2.63,0,0,1-.12,1,1.48,1.48,0,0,1-1.48.94,1.55,1.55,0,0,1-1.39-.76h0a2.86,2.86,0,0,1-.31.19l-1.78,1V34.78l1.71-.9V33.29h-1.71V32h5.08Zm-2.3,1.78a0.58,0.58,0,0,0,.63.65c0.38,0,.61-0.14.61-0.77V33.29H420.5v0.54Z"/><path class="cls-1" d="M419.81,37.85l3-1.68v1.41l-1.22.58c-0.35.16-.73,0.31-0.73,0.31h0s0.38,0.14.73,0.31l1.22,0.57v1.41l-3-1.68h-2.08V37.85h2.08Z"/><path class="cls-1" d="M385.51,44.13l2.1,7.87c0.15,0.59.23,1.14,0.23,1.14h0a7.45,7.45,0,0,1,.2-1.14l2-7.87h1.55l-2.81,10.73H387l-1.85-7c-0.18-.68-0.32-1.52-0.32-1.52h0s-0.14.84-.32,1.52l-1.85,7h-1.75l-2.74-10.73h1.55l1.9,7.87a10.47,10.47,0,0,1,.2,1.14h0a11.52,11.52,0,0,1,.23-1.14l2.1-7.87h1.34Z"/><path class="cls-1" d="M398.26,43.95a5.41,5.41,0,0,1,5.5,5.47,5.51,5.51,0,1,1-11,0A5.42,5.42,0,0,1,398.26,43.95Zm0,9.71a4.05,4.05,0,0,0,4-4.24,4,4,0,1,0-7.92,0A4.07,4.07,0,0,0,398.26,53.66Z"/><path class="cls-1" d="M405.94,44.13h3.28a5.42,5.42,0,0,1,2,.24,3.19,3.19,0,0,1-.12,5.81v0a3.06,3.06,0,0,1,.32.49l2.28,4.16H412l-2.26-4.27h-2.29v4.27h-1.5V44.13Zm3.66,5.15a1.78,1.78,0,0,0,1.9-1.95,1.76,1.76,0,0,0-.85-1.66,3,3,0,0,0-1.47-.24h-1.73v3.85h2.16Z"/><path class="cls-1" d="M415.68,44.13h1.5v4.51h1.6l2.71-4.51h1.66L420,49.22v0l3.31,5.61h-1.7l-2.86-4.92h-1.6v4.92h-1.5V44.13Z"/><path class="cls-1" d="M398.73,28.56a2.57,2.57,0,0,1,2.66,2.6,2.66,2.66,0,0,1-5.32,0A2.57,2.57,0,0,1,398.73,28.56Zm0,4.12a1.43,1.43,0,0,0,1.37-1.52,1.37,1.37,0,1,0-2.74,0A1.43,1.43,0,0,0,398.73,32.68Z"/><path class="cls-1" d="M402.23,28.64h3.11v1.07h-1.87v1.07H405v1.07h-1.55v1.88h-1.24V28.64Z"/><path class="cls-1" d="M422.25,71.84h0l-37.67,0a0.8,0.8,0,0,1-.79-0.68,13.78,13.78,0,0,1,.47-5.46,9.86,9.86,0,0,0-1.11,1.65,0.8,0.8,0,0,1-1.52-.36,12.46,12.46,0,0,0-3.53-8.6,27.63,27.63,0,0,1,1,8,0.8,0.8,0,0,1-1.56.21,6.21,6.21,0,0,0-.56-1.25,15.31,15.31,0,0,1,.5,5.82,0.8,0.8,0,0,1,0,.16,0.81,0.81,0,0,1-.76.55H351.39a0.8,0.8,0,0,1,0-1.6h24.49c0.08-1.57,0-5.46-2.54-8.08a0.8,0.8,0,0,1,.88-1.3,9.37,9.37,0,0,1,3.09,2.29A18,18,0,0,0,375.39,56a0.8,0.8,0,0,1,1.1-1.09A14.88,14.88,0,0,1,383,64.63a7.35,7.35,0,0,1,2.58-2,0.8,0.8,0,0,1,1,1.07,15.84,15.84,0,0,0-1.35,6.55l36.23,0a8.72,8.72,0,0,0-1.71-5.84,0.8,0.8,0,0,1-.11-0.87,0.79,0.79,0,0,1,.75-0.45,15.32,15.32,0,0,1,4.23.74,11.56,11.56,0,0,1,9.57-11,0.81,0.81,0,0,1,.77.35,0.8,0.8,0,0,1,0,.85c-1.69,2.9-2.23,6.85-2.39,9.46a6.66,6.66,0,0,1,5-1.44,0.8,0.8,0,0,1,.54,1.28,13.88,13.88,0,0,0-3,6.88h23.86a0.8,0.8,0,0,1,0,1.6H434.37a0.8,0.8,0,0,1-.8-0.73c0-.14-0.26-3.22,2.42-7.4a4,4,0,0,0-3.42,2.82,0.8,0.8,0,0,1-1.57-.21c0-.29-0.24-6.5,1.86-11.45-2.37.84-6.53,3.29-6.62,10.12a0.8,0.8,0,0,1-1.18.7,10.57,10.57,0,0,0-3.08-.87A10.37,10.37,0,0,1,423,71.16,0.8,0.8,0,0,1,422.25,71.84Z"/><path class="cls-1" d="M471.12,71h-2V32.46a30.88,30.88,0,0,1,61.76,0V55.76h-2V32.46a28.87,28.87,0,0,0-57.75,0V71Z"/><path class="cls-1" d="M477.87,40.1V38.86H483V40.1h-5.08Z"/><path class="cls-1" d="M477.87,37.67V36.41L480.24,35a9.18,9.18,0,0,1,.87-0.43h0s-0.55.06-.87,0.06h-2.37V33.37H483v1.25L480.59,36a9.06,9.06,0,0,1-.87.43h0s0.55-.06.87-0.06H483v1.24h-5.08Z"/><path class="cls-1" d="M478.24,29.59l0.32-1.2,3.89,1,0.53-2,1,0.27-0.85,3.21Z"/><path class="cls-1" d="M480.76,22.77a2.57,2.57,0,0,1,3.58-1,2.66,2.66,0,0,1-2.66,4.6A2.57,2.57,0,0,1,480.76,22.77Zm3.56,2.06a1.43,1.43,0,0,0-.63-2,1.37,1.37,0,1,0-1.37,2.38A1.43,1.43,0,0,0,484.33,24.83Z"/><path class="cls-1" d="M483,19.5l1-.93,2.64,1.49c0.29,0.16.7,0.46,0.7,0.46h0s-0.27-.43-0.42-0.73l-1.33-2.73,1-.91,2.19,4.92-0.94.89Z"/><path class="cls-1" d="M487.71,15.47l1.05-.66,2.7,4.31-1.05.66Z"/><path class="cls-1" d="M490.5,13.78l1.18-.42,2.13,1.76a9.07,9.07,0,0,1,.69.67h0s-0.24-.5-0.35-0.8l-0.8-2.24,1.17-.42,1.72,4.79-1.18.42-2.13-1.75a9.07,9.07,0,0,1-.69-0.67h0s0.24,0.5.35,0.8l0.8,2.23-1.17.42Z"/><path class="cls-1" d="M499.15,11.69a2.8,2.8,0,0,1,2,.59l-0.55,1a2,2,0,0,0-1.26-.41,1.35,1.35,0,0,0-1.43,1.5,1.44,1.44,0,0,0,1.52,1.47,1.74,1.74,0,0,0,1-.42l0-.39-0.72,0,0-1.06,1.82-.08,0.13,2.87-1,0V16.66c0-.11,0-0.21,0-0.21h0a2.11,2.11,0,0,1-1.31.5,2.49,2.49,0,0,1-2.61-2.52A2.57,2.57,0,0,1,499.15,11.69Z"/><path class="cls-1" d="M505.76,12.39L507,12.88l-0.08,2.27c0,0.35-.06.87-0.06,0.87h0s0.32-.43.54-0.69l1.46-1.74,1.26,0.49L508.71,19l-1.16-.45,0.68-2.19a7.58,7.58,0,0,1,.31-0.8h0s-0.35.44-.57,0.69l-1,1.18-1-.38,0-1.56c0-.34,0-0.9,0-0.9h0a7.61,7.61,0,0,1-.31.8l-1,2.08L503.54,17Z"/><path class="cls-1" d="M512.32,15.45l2.52,1.95-0.65.84-1.54-1.19-0.56.73,1.23,0.95-0.65.84-1.23-.95-0.59.76,1.62,1.25-0.65.85-2.6-2Z"/><path class="cls-1" d="M516.54,19l0.79,1.09L516,22c-0.2.28-.53,0.7-0.53,0.7h0s0.5-.19.83-0.29l2.17-.66,0.79,1.09-3.87,3.32-0.73-1,1.76-1.47a7.61,7.61,0,0,1,.69-0.5h0l-0.86.27-1.5.43L514.16,23l0.88-1.3c0.19-.28.52-0.73,0.52-0.73h0a7.6,7.6,0,0,1-.69.5l-1.94,1.22-0.73-1Z"/><path class="cls-1" d="M521.27,27.48a2.57,2.57,0,0,1-1.72,3.29A2.66,2.66,0,0,1,518,25.68,2.57,2.57,0,0,1,521.27,27.48Zm-3.94,1.18a1.43,1.43,0,0,0,1.85.88,1.37,1.37,0,1,0-.79-2.63A1.43,1.43,0,0,0,517.33,28.67Z"/><path class="cls-1" d="M522.12,32v1.77a2.63,2.63,0,0,1-.12,1,1.48,1.48,0,0,1-1.48.94,1.55,1.55,0,0,1-1.39-.76h0a2.86,2.86,0,0,1-.31.19l-1.78,1V34.78l1.71-.9V33.29H517V32h5.08Zm-2.3,1.78a0.58,0.58,0,0,0,.63.65c0.38,0,.61-0.14.61-0.77V33.29h-1.24v0.54Z"/><path class="cls-1" d="M519.12,37.85l3-1.68v1.41l-1.22.58c-0.35.16-.73,0.31-0.73,0.31h0s0.38,0.14.73,0.31l1.22,0.57v1.41l-3-1.68H517V37.85h2.08Z"/><path class="cls-1" d="M484.83,44.13l2.1,7.87c0.15,0.59.23,1.14,0.23,1.14h0a7.45,7.45,0,0,1,.2-1.14l2-7.87h1.55L488.1,54.86h-1.75l-1.85-7c-0.18-.68-0.32-1.52-0.32-1.52h0s-0.14.84-.32,1.52l-1.85,7h-1.75l-2.74-10.73H479l1.9,7.87a10.47,10.47,0,0,1,.2,1.14h0A11.52,11.52,0,0,1,481.4,52l2.1-7.87h1.34Z"/><path class="cls-1" d="M497.58,43.95a5.41,5.41,0,0,1,5.5,5.47,5.51,5.51,0,1,1-11,0A5.42,5.42,0,0,1,497.58,43.95Zm0,9.71a4.05,4.05,0,0,0,4-4.24,4,4,0,1,0-7.92,0A4.07,4.07,0,0,0,497.58,53.66Z"/><path class="cls-1" d="M505.26,44.13h3.28a5.42,5.42,0,0,1,2,.24,3.19,3.19,0,0,1-.12,5.81v0a3.06,3.06,0,0,1,.32.49L513,54.86h-1.7l-2.26-4.27h-2.29v4.27h-1.5V44.13Zm3.66,5.15a1.78,1.78,0,0,0,1.9-1.95,1.76,1.76,0,0,0-.85-1.66,3,3,0,0,0-1.47-.24h-1.73v3.85h2.16Z"/><path class="cls-1" d="M515,44.13h1.5v4.51h1.6l2.71-4.51h1.66l-3.12,5.09v0l3.31,5.61H521l-2.86-4.92h-1.6v4.92H515V44.13Z"/><path class="cls-1" d="M498,28.56a2.57,2.57,0,0,1,2.66,2.6,2.66,2.66,0,0,1-5.32,0A2.57,2.57,0,0,1,498,28.56Zm0,4.12a1.43,1.43,0,0,0,1.37-1.52,1.37,1.37,0,1,0-2.74,0A1.43,1.43,0,0,0,498,32.68Z"/><path class="cls-1" d="M501.55,28.64h3.11v1.07h-1.87v1.07h1.55v1.07h-1.55v1.88h-1.24V28.64Z"/><path class="cls-1" d="M521.57,71.84h0l-37.67,0a0.8,0.8,0,0,1-.79-0.68,13.78,13.78,0,0,1,.47-5.46,9.86,9.86,0,0,0-1.11,1.65,0.8,0.8,0,0,1-1.52-.36,12.46,12.46,0,0,0-3.53-8.6,27.63,27.63,0,0,1,1,8,0.8,0.8,0,0,1-1.56.21,6.21,6.21,0,0,0-.56-1.25,15.31,15.31,0,0,1,.5,5.82,0.8,0.8,0,0,1,0,.16,0.81,0.81,0,0,1-.76.55H450.71a0.8,0.8,0,1,1,0-1.6h24.49c0.08-1.57,0-5.46-2.54-8.08a0.8,0.8,0,0,1,.88-1.3,9.37,9.37,0,0,1,3.09,2.29A18,18,0,0,0,474.71,56a0.8,0.8,0,0,1,1.1-1.09,14.88,14.88,0,0,1,6.54,9.69,7.35,7.35,0,0,1,2.58-2,0.8,0.8,0,0,1,1,1.07,15.84,15.84,0,0,0-1.35,6.55l36.23,0a8.72,8.72,0,0,0-1.71-5.84,0.8,0.8,0,0,1-.11-0.87,0.79,0.79,0,0,1,.75-0.45,15.32,15.32,0,0,1,4.23.74,11.56,11.56,0,0,1,9.57-11,0.81,0.81,0,0,1,.77.35,0.8,0.8,0,0,1,0,.85c-1.69,2.9-2.23,6.85-2.39,9.46a6.66,6.66,0,0,1,5-1.44,0.8,0.8,0,0,1,.54,1.28,13.88,13.88,0,0,0-3,6.88h23.86a0.8,0.8,0,0,1,0,1.6H533.69a0.8,0.8,0,0,1-.8-0.73c0-.14-0.26-3.22,2.42-7.4a4,4,0,0,0-3.42,2.82,0.8,0.8,0,0,1-1.57-.21c0-.29-0.24-6.5,1.86-11.45-2.37.84-6.53,3.29-6.62,10.12a0.8,0.8,0,0,1-1.18.7,10.57,10.57,0,0,0-3.08-.87,10.37,10.37,0,0,1,1.06,6.33A0.8,0.8,0,0,1,521.57,71.84Z"/><path class="cls-1" d="M571.93,71h-2V32.46a30.88,30.88,0,0,1,61.76,0V55.76h-2V32.46a28.87,28.87,0,0,0-57.75,0V71Z"/><path class="cls-1" d="M578.67,40.1V38.86h5.08V40.1h-5.08Z"/><path class="cls-1" d="M578.67,37.67V36.41L581,35a9.18,9.18,0,0,1,.87-0.43h0s-0.55.06-.87,0.06h-2.37V33.37h5.08v1.25L581.39,36a9.06,9.06,0,0,1-.87.43h0s0.55-.06.87-0.06h2.37v1.24h-5.08Z"/><path class="cls-1" d="M579,29.59l0.32-1.2,3.89,1,0.53-2,1,0.27L584,30.88Z"/><path class="cls-1" d="M581.57,22.77a2.57,2.57,0,0,1,3.58-1,2.66,2.66,0,1,1-2.66,4.6A2.57,2.57,0,0,1,581.57,22.77Zm3.56,2.06a1.43,1.43,0,0,0-.63-2,1.37,1.37,0,1,0-1.37,2.38A1.43,1.43,0,0,0,585.13,24.83Z"/><path class="cls-1" d="M583.82,19.5l1-.93,2.64,1.49c0.29,0.16.7,0.46,0.7,0.46h0s-0.27-.43-0.42-0.73l-1.33-2.73,1-.91,2.19,4.92-0.94.89Z"/><path class="cls-1" d="M588.52,15.47l1.05-.66,2.7,4.31-1.05.66Z"/><path class="cls-1" d="M591.31,13.78l1.18-.42,2.13,1.76a9.07,9.07,0,0,1,.69.67h0s-0.24-.5-0.35-0.8l-0.8-2.24,1.17-.42,1.72,4.79-1.18.42-2.13-1.75a9.07,9.07,0,0,1-.69-0.67h0s0.24,0.5.35,0.8l0.8,2.23-1.17.42Z"/><path class="cls-1" d="M600,11.69a2.8,2.8,0,0,1,2,.59l-0.55,1a2,2,0,0,0-1.26-.41,1.35,1.35,0,0,0-1.43,1.5,1.44,1.44,0,0,0,1.52,1.47,1.74,1.74,0,0,0,1-.42l0-.39-0.72,0,0-1.06,1.82-.08,0.13,2.87-1,0V16.66c0-.11,0-0.21,0-0.21h0a2.11,2.11,0,0,1-1.31.5,2.49,2.49,0,0,1-2.61-2.52A2.57,2.57,0,0,1,600,11.69Z"/><path class="cls-1" d="M606.57,12.39l1.26,0.49-0.08,2.27c0,0.35-.06.87-0.06,0.87h0s0.32-.43.54-0.69l1.46-1.74L611,14.08,609.51,19l-1.16-.45L609,16.33a7.58,7.58,0,0,1,.31-0.8h0s-0.35.44-.57,0.69l-1,1.18-1-.38,0-1.56c0-.34,0-0.9,0-0.9h0a7.61,7.61,0,0,1-.31.8l-1,2.08L604.35,17Z"/><path class="cls-1" d="M613.13,15.45l2.52,1.95-0.65.84-1.54-1.19-0.56.73,1.23,0.95-0.65.84-1.23-.95-0.59.76,1.62,1.25-0.65.85-2.6-2Z"/><path class="cls-1" d="M617.35,19l0.79,1.09L616.84,22c-0.2.28-.53,0.7-0.53,0.7h0s0.5-.19.83-0.29l2.17-.66,0.79,1.09-3.87,3.32-0.73-1,1.76-1.47a7.61,7.61,0,0,1,.69-0.5h0l-0.86.27-1.5.43L615,23l0.88-1.3c0.19-.28.52-0.73,0.52-0.73h0a7.6,7.6,0,0,1-.69.5l-1.94,1.22-0.73-1Z"/><path class="cls-1" d="M622.07,27.48a2.57,2.57,0,0,1-1.72,3.29,2.66,2.66,0,0,1-1.53-5.09A2.57,2.57,0,0,1,622.07,27.48Zm-3.94,1.18a1.43,1.43,0,0,0,1.85.88,1.37,1.37,0,1,0-.79-2.63A1.43,1.43,0,0,0,618.13,28.67Z"/><path class="cls-1" d="M622.93,32v1.77a2.63,2.63,0,0,1-.12,1,1.48,1.48,0,0,1-1.48.94,1.55,1.55,0,0,1-1.39-.76h0a2.86,2.86,0,0,1-.31.19l-1.78,1V34.78l1.71-.9V33.29h-1.71V32h5.08Zm-2.3,1.78a0.58,0.58,0,0,0,.63.65c0.38,0,.61-0.14.61-0.77V33.29h-1.24v0.54Z"/><path class="cls-1" d="M619.93,37.85l3-1.68v1.41l-1.22.58c-0.35.16-.73,0.31-0.73,0.31h0s0.38,0.14.73,0.31l1.22,0.57v1.41l-3-1.68h-2.08V37.85h2.08Z"/><path class="cls-1" d="M585.63,44.13l2.1,7.87c0.15,0.59.23,1.14,0.23,1.14h0a7.45,7.45,0,0,1,.2-1.14l2-7.87h1.55L588.9,54.86h-1.75l-1.85-7c-0.18-.68-0.32-1.52-0.32-1.52h0s-0.14.84-.32,1.52l-1.85,7H581l-2.74-10.73h1.55l1.9,7.87a10.47,10.47,0,0,1,.2,1.14h0A11.52,11.52,0,0,1,582.2,52l2.1-7.87h1.34Z"/><path class="cls-1" d="M598.38,43.95a5.41,5.41,0,0,1,5.5,5.47,5.51,5.51,0,1,1-11,0A5.42,5.42,0,0,1,598.38,43.95Zm0,9.71a4.05,4.05,0,0,0,4-4.24,4,4,0,1,0-7.92,0A4.07,4.07,0,0,0,598.38,53.66Z"/><path class="cls-1" d="M606.07,44.13h3.28a5.42,5.42,0,0,1,2,.24,3.19,3.19,0,0,1-.12,5.81v0a3.06,3.06,0,0,1,.32.49l2.28,4.16h-1.7l-2.26-4.27h-2.29v4.27h-1.5V44.13Zm3.66,5.15a1.78,1.78,0,0,0,1.9-1.95,1.76,1.76,0,0,0-.85-1.66,3,3,0,0,0-1.47-.24h-1.73v3.85h2.16Z"/><path class="cls-1" d="M615.81,44.13h1.5v4.51h1.6l2.71-4.51h1.66l-3.12,5.09v0l3.31,5.61h-1.7l-2.86-4.92h-1.6v4.92h-1.5V44.13Z"/><path class="cls-1" d="M598.85,28.56a2.57,2.57,0,0,1,2.66,2.6,2.66,2.66,0,0,1-5.32,0A2.57,2.57,0,0,1,598.85,28.56Zm0,4.12a1.43,1.43,0,0,0,1.37-1.52,1.37,1.37,0,1,0-2.74,0A1.43,1.43,0,0,0,598.85,32.68Z"/><path class="cls-1" d="M602.35,28.64h3.11v1.07H603.6v1.07h1.55v1.07H603.6v1.88h-1.24V28.64Z"/><path class="cls-1" d="M622.38,71.84h0l-37.67,0a0.8,0.8,0,0,1-.79-0.68,13.78,13.78,0,0,1,.47-5.46,9.86,9.86,0,0,0-1.11,1.65,0.8,0.8,0,0,1-1.52-.36,12.46,12.46,0,0,0-3.53-8.6,27.63,27.63,0,0,1,1,8,0.8,0.8,0,0,1-1.56.21,6.21,6.21,0,0,0-.56-1.25,15.31,15.31,0,0,1,.5,5.82,0.8,0.8,0,0,1,0,.16,0.81,0.81,0,0,1-.76.55H551.52a0.8,0.8,0,0,1,0-1.6H576c0.08-1.57,0-5.46-2.54-8.08a0.8,0.8,0,0,1,.88-1.3,9.37,9.37,0,0,1,3.09,2.29A18,18,0,0,0,575.51,56a0.8,0.8,0,0,1,1.1-1.09,14.88,14.88,0,0,1,6.54,9.69,7.35,7.35,0,0,1,2.58-2,0.8,0.8,0,0,1,1,1.07,15.84,15.84,0,0,0-1.35,6.55l36.23,0a8.72,8.72,0,0,0-1.71-5.84,0.8,0.8,0,0,1-.11-0.87,0.79,0.79,0,0,1,.75-0.45,15.32,15.32,0,0,1,4.23.74,11.56,11.56,0,0,1,9.57-11,0.81,0.81,0,0,1,.77.35,0.8,0.8,0,0,1,0,.85c-1.69,2.9-2.23,6.85-2.39,9.46a6.66,6.66,0,0,1,5-1.44,0.8,0.8,0,0,1,.54,1.28,13.88,13.88,0,0,0-3,6.88h23.86a0.8,0.8,0,1,1,0,1.6H634.49a0.8,0.8,0,0,1-.8-0.73c0-.14-0.26-3.22,2.42-7.4a4,4,0,0,0-3.42,2.82,0.8,0.8,0,0,1-1.57-.21c0-.29-0.24-6.5,1.86-11.45-2.37.84-6.53,3.29-6.62,10.12a0.8,0.8,0,0,1-1.18.7,10.57,10.57,0,0,0-3.08-.87,10.37,10.37,0,0,1,1.06,6.33A0.8,0.8,0,0,1,622.38,71.84Z"/><path class="cls-1" d="M671.25,71h-2V32.46a30.88,30.88,0,0,1,61.76,0V55.76h-2V32.46a28.87,28.87,0,0,0-57.75,0V71Z"/><path class="cls-1" d="M678,40.1V38.86h5.08V40.1H678Z"/><path class="cls-1" d="M678,37.67V36.41L680.37,35a9.18,9.18,0,0,1,.87-0.43h0s-0.55.06-.87,0.06H678V33.37h5.08v1.25L680.71,36a9.06,9.06,0,0,1-.87.43h0s0.55-.06.87-0.06h2.37v1.24H678Z"/><path class="cls-1" d="M678.37,29.59l0.32-1.2,3.89,1,0.53-2,1,0.27-0.85,3.21Z"/><path class="cls-1" d="M680.89,22.77a2.57,2.57,0,0,1,3.58-1,2.66,2.66,0,1,1-2.66,4.6A2.57,2.57,0,0,1,680.89,22.77Zm3.56,2.06a1.43,1.43,0,0,0-.63-2,1.37,1.37,0,1,0-1.37,2.38A1.43,1.43,0,0,0,684.45,24.83Z"/><path class="cls-1" d="M683.14,19.5l1-.93,2.64,1.49c0.29,0.16.7,0.46,0.7,0.46h0s-0.27-.43-0.42-0.73l-1.33-2.73,1-.91,2.19,4.92-0.94.89Z"/><path class="cls-1" d="M687.84,15.47l1.05-.66,2.7,4.31-1.05.66Z"/><path class="cls-1" d="M690.62,13.78l1.18-.42,2.13,1.76a9.07,9.07,0,0,1,.69.67h0s-0.24-.5-0.35-0.8l-0.8-2.24,1.17-.42,1.72,4.79-1.18.42-2.13-1.75a9.07,9.07,0,0,1-.69-0.67h0s0.24,0.5.35,0.8l0.8,2.23-1.17.42Z"/><path class="cls-1" d="M699.28,11.69a2.8,2.8,0,0,1,2,.59l-0.55,1a2,2,0,0,0-1.26-.41,1.35,1.35,0,0,0-1.43,1.5,1.44,1.44,0,0,0,1.52,1.47,1.74,1.74,0,0,0,1-.42l0-.39-0.72,0,0-1.06,1.82-.08,0.13,2.87-1,0V16.66c0-.11,0-0.21,0-0.21h0a2.11,2.11,0,0,1-1.31.5,2.49,2.49,0,0,1-2.61-2.52A2.57,2.57,0,0,1,699.28,11.69Z"/><path class="cls-1" d="M705.89,12.39l1.26,0.49-0.08,2.27c0,0.35-.06.87-0.06,0.87h0s0.32-.43.54-0.69L709,13.6l1.26,0.49L708.83,19l-1.16-.45,0.68-2.19a7.58,7.58,0,0,1,.31-0.8h0s-0.35.44-.57,0.69l-1,1.18-1-.38,0-1.56c0-.34,0-0.9,0-0.9h0a7.61,7.61,0,0,1-.31.8l-1,2.08L703.67,17Z"/><path class="cls-1" d="M712.45,15.45L715,17.39l-0.65.84-1.54-1.19-0.56.73,1.23,0.95-0.65.84-1.23-.95-0.59.76,1.62,1.25-0.65.85-2.6-2Z"/><path class="cls-1" d="M716.66,19l0.79,1.09L716.15,22c-0.2.28-.53,0.7-0.53,0.7h0s0.5-.19.83-0.29l2.17-.66,0.79,1.09-3.87,3.32-0.73-1,1.76-1.47a7.61,7.61,0,0,1,.69-0.5h0l-0.86.27-1.5.43L714.28,23l0.88-1.3c0.19-.28.52-0.73,0.52-0.73h0a7.6,7.6,0,0,1-.69.5L713,22.67l-0.73-1Z"/><path class="cls-1" d="M721.39,27.48a2.57,2.57,0,0,1-1.72,3.29,2.66,2.66,0,0,1-1.53-5.09A2.57,2.57,0,0,1,721.39,27.48Zm-3.94,1.18a1.43,1.43,0,0,0,1.85.88,1.37,1.37,0,1,0-.79-2.63A1.43,1.43,0,0,0,717.45,28.67Z"/><path class="cls-1" d="M722.25,32v1.77a2.63,2.63,0,0,1-.12,1,1.48,1.48,0,0,1-1.48.94,1.55,1.55,0,0,1-1.39-.76h0a2.86,2.86,0,0,1-.31.19l-1.78,1V34.78l1.71-.9V33.29h-1.71V32h5.08Zm-2.3,1.78a0.58,0.58,0,0,0,.63.65c0.38,0,.61-0.14.61-0.77V33.29h-1.24v0.54Z"/><path class="cls-1" d="M719.25,37.85l3-1.68v1.41l-1.22.58c-0.35.16-.73,0.31-0.73,0.31h0s0.38,0.14.73,0.31l1.22,0.57v1.41l-3-1.68h-2.08V37.85h2.08Z"/><path class="cls-1" d="M685,44.13l2.1,7.87c0.15,0.59.23,1.14,0.23,1.14h0a7.45,7.45,0,0,1,.2-1.14l2-7.87H691l-2.81,10.73h-1.75l-1.85-7c-0.18-.68-0.32-1.52-0.32-1.52h0s-0.14.84-.32,1.52l-1.85,7h-1.75l-2.74-10.73h1.55l1.9,7.87a10.47,10.47,0,0,1,.2,1.14h0a11.52,11.52,0,0,1,.23-1.14l2.1-7.87H685Z"/><path class="cls-1" d="M697.7,43.95a5.41,5.41,0,0,1,5.5,5.47,5.51,5.51,0,1,1-11,0A5.42,5.42,0,0,1,697.7,43.95Zm0,9.71a4.05,4.05,0,0,0,4-4.24,4,4,0,1,0-7.92,0A4.07,4.07,0,0,0,697.7,53.66Z"/><path class="cls-1" d="M705.39,44.13h3.28a5.42,5.42,0,0,1,2,.24,3.19,3.19,0,0,1-.12,5.81v0a3.06,3.06,0,0,1,.32.49l2.28,4.16h-1.7l-2.26-4.27h-2.29v4.27h-1.5V44.13ZM709,49.28a1.78,1.78,0,0,0,1.9-1.95,1.76,1.76,0,0,0-.85-1.66,3,3,0,0,0-1.47-.24h-1.73v3.85H709Z"/><path class="cls-1" d="M715.12,44.13h1.5v4.51h1.6l2.71-4.51h1.66l-3.12,5.09v0l3.31,5.61h-1.7l-2.86-4.92h-1.6v4.92h-1.5V44.13Z"/><path class="cls-1" d="M698.17,28.56a2.57,2.57,0,0,1,2.66,2.6,2.66,2.66,0,0,1-5.32,0A2.57,2.57,0,0,1,698.17,28.56Zm0,4.12a1.43,1.43,0,0,0,1.37-1.52,1.37,1.37,0,1,0-2.74,0A1.43,1.43,0,0,0,698.17,32.68Z"/><path class="cls-1" d="M701.67,28.64h3.11v1.07h-1.87v1.07h1.55v1.07h-1.55v1.88h-1.24V28.64Z"/><path class="cls-1" d="M721.69,71.84h0l-37.67,0a0.8,0.8,0,0,1-.79-0.68,13.78,13.78,0,0,1,.47-5.46,9.86,9.86,0,0,0-1.11,1.65,0.8,0.8,0,0,1-1.52-.36,12.46,12.46,0,0,0-3.53-8.6,27.63,27.63,0,0,1,1,8,0.8,0.8,0,0,1-1.56.21,6.21,6.21,0,0,0-.56-1.25,15.31,15.31,0,0,1,.5,5.82,0.8,0.8,0,0,1,0,.16,0.81,0.81,0,0,1-.76.55H650.84a0.8,0.8,0,0,1,0-1.6h24.49c0.08-1.57,0-5.46-2.54-8.08a0.8,0.8,0,0,1,.88-1.3,9.37,9.37,0,0,1,3.09,2.29A18,18,0,0,0,674.83,56a0.8,0.8,0,0,1,1.1-1.09,14.88,14.88,0,0,1,6.54,9.69,7.35,7.35,0,0,1,2.58-2,0.8,0.8,0,0,1,1,1.07,15.84,15.84,0,0,0-1.35,6.55l36.23,0a8.72,8.72,0,0,0-1.71-5.84,0.8,0.8,0,0,1-.11-0.87,0.79,0.79,0,0,1,.75-0.45,15.32,15.32,0,0,1,4.23.74,11.56,11.56,0,0,1,9.57-11,0.81,0.81,0,0,1,.77.35,0.8,0.8,0,0,1,0,.85c-1.69,2.9-2.23,6.85-2.39,9.46a6.66,6.66,0,0,1,5-1.44,0.8,0.8,0,0,1,.54,1.28,13.88,13.88,0,0,0-3,6.88H889.78a0.8,0.8,0,1,1,0,1.6h-156a0.8,0.8,0,0,1-.8-0.73c0-.14-0.26-3.22,2.42-7.4A4,4,0,0,0,732,66.53a0.8,0.8,0,0,1-1.57-.21c0-.29-0.24-6.5,1.86-11.45-2.37.84-6.53,3.29-6.62,10.12a0.8,0.8,0,0,1-1.18.7,10.57,10.57,0,0,0-3.08-.87,10.37,10.37,0,0,1,1.06,6.33A0.8,0.8,0,0,1,721.69,71.84Z"/></svg>