<?xml version="1.0" encoding="utf-8"?>
<!-- Generator: Adobe Illustrator 19.1.0, SVG Export Plug-In . SVG Version: 6.00 Build 0)  -->
<svg version="1.1" id="Layer_1" xmlns="http://www.w3.org/2000/svg" xmlns:xlink="http://www.w3.org/1999/xlink" x="0px" y="0px"
	 viewBox="-232.8 797.2 233.5 26.1" style="enable-background:new -232.8 797.2 233.5 26.1;" xml:space="preserve">
<style type="text/css">
	.st0{enable-background:new    ;}
	.st1{fill:#FFFFFF;}
	.st2{fill:#E6007E;}
</style>
<g class="st0">
	<path class="st1" d="M-232.8,797.2h4.5v19.2c0,2,0.7,2.5,1.9,2.5c0.4,0,0.7,0,0.7,0v4c0,0-0.7,0.1-1.4,0.1c-2.5,0-5.7-0.6-5.7-5.9
		V797.2z"/>
</g>
<g class="st0">
	<path class="st1" d="M-212.5,811.3h0.6V811c0-2.4-1.5-3.2-3.5-3.2c-2.6,0-5,1.8-5,1.8l-1.7-3.3c0,0,2.8-2.3,7.2-2.3
		c4.8,0,7.6,2.7,7.6,7.3v11.5h-4.2v-1.5c0-0.7,0.1-1.3,0.1-1.3h-0.1c0,0-1.4,3.2-5.6,3.2c-3.3,0-6.2-2.1-6.2-5.7
		C-223.3,811.7-215.4,811.3-212.5,811.3z M-215.9,819.7c2.4,0,4.1-2.6,4.1-4.8v-0.5h-0.8c-2.3,0-6.1,0.3-6.1,2.9
		C-218.7,818.5-217.8,819.7-215.9,819.7z"/>
	<path class="st1" d="M-202.8,804.4h4.6v10.9c0,2.2,0.6,3.7,2.8,3.7c3.3,0,5.1-2.9,5.1-6.2v-8.4h4.6v18.4h-4.4v-2.1
		c0-0.7,0.1-1.3,0.1-1.3h-0.1c-0.9,1.9-3.2,3.8-6.4,3.8c-3.9,0-6.4-2-6.4-7L-202.8,804.4L-202.8,804.4z"/>
</g>
<g class="st0">
	<path class="st1" d="M-182.3,804.4h4.4v3.2c0,0.7-0.1,1.3-0.1,1.3h0.1c0.8-2.6,3-4.7,5.8-4.7c0.4,0,0.8,0.1,0.8,0.1v4.5
		c0,0-0.5-0.1-1.1-0.1c-1.9,0-4.1,1.1-5,3.9c-0.3,0.9-0.4,1.9-0.4,3v7.3h-4.6v-18.5L-182.3,804.4L-182.3,804.4z"/>
	<path class="st1" d="M-160.1,804c5.3,0,8.1,3.9,8.1,8.7c0,0.5-0.1,1.8-0.1,1.8h-12.7c0.3,3.2,2.8,4.9,5.5,4.9c3,0,5.3-2,5.3-2
		l1.8,3.3c0,0-2.8,2.6-7.4,2.6c-6.1,0-9.9-4.4-9.9-9.6C-169.4,808-165.6,804-160.1,804z M-156.6,811.4c-0.1-2.5-1.6-3.8-3.6-3.8
		c-2.3,0-4,1.4-4.4,3.8H-156.6z"/>
</g>
<g class="st0">
	<path class="st1" d="M-148.8,804.4h4.4v2.1c0,0.7-0.1,1.3-0.1,1.3h0.1c0.8-1.5,2.8-3.8,6.5-3.8c4.1,0,6.4,2.1,6.4,7v11.8h-4.5
		v-10.9c0-2.2-0.6-3.7-2.9-3.7c-2.4,0-4.2,1.5-4.9,3.7c-0.3,0.8-0.3,1.6-0.3,2.4v8.4h-4.6L-148.8,804.4L-148.8,804.4z"/>
</g>
<g class="st0">
	<path class="st2" d="M-117.6,804c4,0,5.3,2.3,5.3,2.3h0.1c0,0,0-0.5,0-1v-8.1h4.6v25.6h-4.4v-1.5c0-0.7,0.1-1.2,0.1-1.2h-0.1
		c0,0-1.5,3.1-5.8,3.1c-5,0-8.1-3.9-8.1-9.6C-125.9,807.8-122.5,804-117.6,804z M-116.8,819.4c2.4,0,4.6-1.7,4.6-5.8
		c0-2.8-1.5-5.7-4.6-5.7c-2.5,0-4.6,2.1-4.6,5.7C-121.3,817.1-119.5,819.4-116.8,819.4z"/>
</g>
<g class="st0">
	<path class="st2" d="M-94.6,804c5.6,0,10.1,4,10.1,9.6c0,5.7-4.5,9.6-10.1,9.6c-5.6,0-10.1-4-10.1-9.6
		C-104.6,808-100.1,804-94.6,804z M-94.5,819.3c3,0,5.4-2.3,5.4-5.7s-2.5-5.7-5.4-5.7c-3,0-5.5,2.3-5.5,5.7S-97.5,819.3-94.5,819.3z
		"/>
</g>
<g class="st0">
	<path class="st2" d="M-72.8,804c5.3,0,8.1,3.9,8.1,8.7c0,0.5-0.1,1.8-0.1,1.8h-12.7c0.3,3.2,2.8,4.9,5.5,4.9c3,0,5.3-2,5.3-2
		l1.8,3.3c0,0-2.8,2.6-7.4,2.6c-6.1,0-9.9-4.4-9.9-9.6C-82.1,808-78.2,804-72.8,804z M-69.2,811.4c-0.1-2.5-1.6-3.8-3.6-3.8
		c-2.3,0-4,1.4-4.4,3.8H-69.2z"/>
</g>
<g class="st0">
	<path class="st2" d="M-60,817.3c0,0,2,2,5,2c1.3,0,2.4-0.6,2.4-1.7c0-2.7-8.9-2.4-8.9-8.3c0-3.4,3.1-5.4,7-5.4
		c4.1,0,6.2,2.1,6.2,2.1l-1.7,3.4c0,0-1.7-1.6-4.5-1.6c-1.2,0-2.3,0.5-2.3,1.7c0,2.6,8.9,2.3,8.9,8.2c0,3.1-2.7,5.5-7,5.5
		c-4.6,0-7.1-2.7-7.1-2.7L-60,817.3z"/>
</g>
<g>
	<path class="st1" d="M-5.8,822.5h-26.4c-3.7,0-6.5-2.9-6.5-6.5v-1.8h4.5v1.8c0,1.1,0.9,2,2,2h26.4c1.1,0,2-0.9,2-2v-1.8h4.5v1.8
		C0.8,819.7-2.1,822.5-5.8,822.5z"/>
</g>
</svg>
