<?xml version="1.0" encoding="UTF-8" standalone="no"?>
<!-- Generator: Adobe Illustrator 19.1.0, SVG Export Plug-In . SVG Version: 6.00 Build 0)  -->

<svg
   xmlns:dc="http://purl.org/dc/elements/1.1/"
   xmlns:cc="http://creativecommons.org/ns#"
   xmlns:rdf="http://www.w3.org/1999/02/22-rdf-syntax-ns#"
   xmlns:svg="http://www.w3.org/2000/svg"
   xmlns="http://www.w3.org/2000/svg"
   xmlns:sodipodi="http://sodipodi.sourceforge.net/DTD/sodipodi-0.dtd"
   xmlns:inkscape="http://www.inkscape.org/namespaces/inkscape"
   version="1.1"
   id="Layer_1"
   x="0px"
   y="0px"
   viewBox="114 -11.2 233.50251 26.1"
   xml:space="preserve"
   inkscape:version="0.48.4 r9939"
   width="100%"
   height="100%"
   sodipodi:docname="LD_logo_long_white.svg"><metadata
     id="metadata49"><rdf:RDF><cc:Work
         rdf:about=""><dc:format>image/svg+xml</dc:format><dc:type
           rdf:resource="http://purl.org/dc/dcmitype/StillImage" /></cc:Work></rdf:RDF></metadata><defs
     id="defs47" /><sodipodi:namedview
     pagecolor="#ffffff"
     bordercolor="#666666"
     borderopacity="1"
     objecttolerance="10"
     gridtolerance="10"
     guidetolerance="10"
     inkscape:pageopacity="0"
     inkscape:pageshadow="2"
     inkscape:window-width="640"
     inkscape:window-height="480"
     id="namedview45"
     showgrid="false"
     fit-margin-top="0"
     fit-margin-left="0"
     fit-margin-right="0"
     fit-margin-bottom="0"
     inkscape:zoom="1.2100082"
     inkscape:cx="118.7"
     inkscape:cy="12.000001"
     inkscape:window-x="0"
     inkscape:window-y="34"
     inkscape:window-maximized="0"
     inkscape:current-layer="Layer_1" /><style
     type="text/css"
     id="style3">
	.st0{enable-background:new    ;}
</style><g
     class="st0"
     id="g5"
     style="enable-background:new"
     transform="translate(-3.2,-5.0000001)"><path
       d="m 117.2,-6.2 h 4.5 V 13 c 0,2 0.7,2.5 1.9,2.5 0.4,0 0.7,0 0.7,0 v 4 c 0,0 -0.7,0.1 -1.4,0.1 -2.5,0 -5.7,-0.6 -5.7,-5.9 V -6.2 z"
       id="path7"
       inkscape:connector-curvature="0" /></g><g
     class="st0"
     id="g9"
     style="enable-background:new"
     transform="translate(-3.2,-5.0000001)"><path
       d="m 137.5,7.9 h 0.6 V 7.6 c 0,-2.4 -1.5,-3.2 -3.5,-3.2 -2.6,0 -5,1.8 -5,1.8 l -1.7,-3.3 c 0,0 2.8,-2.3 7.2,-2.3 4.8,0 7.6,2.7 7.6,7.3 v 11.5 h -4.2 v -1.5 c 0,-0.7 0.1,-1.3 0.1,-1.3 h -0.1 c 0,0 -1.4,3.2 -5.6,3.2 -3.3,0 -6.2,-2.1 -6.2,-5.7 0,-5.8 7.9,-6.2 10.8,-6.2 z m -3.4,8.4 c 2.4,0 4.1,-2.6 4.1,-4.8 V 11 h -0.8 c -2.3,0 -6.1,0.3 -6.1,2.9 0,1.2 0.9,2.4 2.8,2.4 z"
       id="path11"
       inkscape:connector-curvature="0" /><path
       d="m 147.2,1 h 4.6 v 10.9 c 0,2.2 0.6,3.7 2.8,3.7 3.3,0 5.1,-2.9 5.1,-6.2 V 1 h 4.6 v 18.4 h -4.4 v -2.1 c 0,-0.7 0.1,-1.3 0.1,-1.3 h -0.1 c -0.9,1.9 -3.2,3.8 -6.4,3.8 -3.9,0 -6.4,-2 -6.4,-7 V 1 z"
       id="path13"
       inkscape:connector-curvature="0" /></g><g
     class="st0"
     id="g15"
     style="enable-background:new"
     transform="translate(-3.2,-5.0000001)"><path
       d="m 167.7,1 h 4.4 v 3.2 c 0,0.7 -0.1,1.3 -0.1,1.3 h 0.1 c 0.8,-2.6 3,-4.7 5.8,-4.7 0.4,0 0.8,0.1 0.8,0.1 v 4.5 c 0,0 -0.5,-0.1 -1.1,-0.1 -1.9,0 -4.1,1.1 -5,3.9 -0.3,0.9 -0.4,1.9 -0.4,3 v 7.3 h -4.6 V 1 z"
       id="path17"
       inkscape:connector-curvature="0" /><path
       d="m 189.9,0.6 c 5.3,0 8.1,3.9 8.1,8.7 0,0.5 -0.1,1.8 -0.1,1.8 h -12.7 c 0.3,3.2 2.8,4.9 5.5,4.9 3,0 5.3,-2 5.3,-2 l 1.8,3.3 c 0,0 -2.8,2.6 -7.4,2.6 -6.1,0 -9.9,-4.4 -9.9,-9.6 0.1,-5.7 3.9,-9.7 9.4,-9.7 z m 3.5,7.4 c -0.1,-2.5 -1.6,-3.8 -3.6,-3.8 -2.3,0 -4,1.4 -4.4,3.8 h 8 z"
       id="path19"
       inkscape:connector-curvature="0" /></g><g
     class="st0"
     id="g21"
     style="enable-background:new"
     transform="translate(-3.2,-5.0000001)"><path
       d="m 201.2,1 h 4.4 v 2.1 c 0,0.7 -0.1,1.3 -0.1,1.3 h 0.1 c 0.8,-1.5 2.8,-3.8 6.5,-3.8 4.1,0 6.4,2.1 6.4,7 V 19.4 H 214 V 8.5 c 0,-2.2 -0.6,-3.7 -2.9,-3.7 -2.4,0 -4.2,1.5 -4.9,3.7 -0.3,0.8 -0.3,1.6 -0.3,2.4 v 8.4 h -4.6 V 1 z"
       id="path23"
       inkscape:connector-curvature="0" /></g><g
     class="st0"
     id="g25"
     style="enable-background:new"
     transform="translate(-3.2,-5.0000001)"><path
       d="m 232.4,0.6 c 4,0 5.3,2.3 5.3,2.3 h 0.1 c 0,0 0,-0.5 0,-1 v -8.1 h 4.6 V 19.4 H 238 v -1.5 c 0,-0.7 0.1,-1.2 0.1,-1.2 H 238 c 0,0 -1.5,3.1 -5.8,3.1 -5,0 -8.1,-3.9 -8.1,-9.6 0,-5.8 3.4,-9.6 8.3,-9.6 z m 0.8,15.4 c 2.4,0 4.6,-1.7 4.6,-5.8 0,-2.8 -1.5,-5.7 -4.6,-5.7 -2.5,0 -4.6,2.1 -4.6,5.7 0.1,3.5 1.9,5.8 4.6,5.8 z"
       id="path27"
       inkscape:connector-curvature="0" /></g><g
     class="st0"
     id="g29"
     style="enable-background:new"
     transform="translate(-3.2,-5.0000001)"><path
       d="m 255.4,0.6 c 5.6,0 10.1,4 10.1,9.6 0,5.7 -4.5,9.6 -10.1,9.6 -5.6,0 -10.1,-4 -10.1,-9.6 0.1,-5.6 4.6,-9.6 10.1,-9.6 z m 0.1,15.3 c 3,0 5.4,-2.3 5.4,-5.7 0,-3.4 -2.5,-5.7 -5.4,-5.7 -3,0 -5.5,2.3 -5.5,5.7 0,3.4 2.5,5.7 5.5,5.7 z"
       id="path31"
       inkscape:connector-curvature="0" /></g><g
     class="st0"
     id="g33"
     style="enable-background:new"
     transform="translate(-3.2,-5.0000001)"><path
       d="m 277.2,0.6 c 5.3,0 8.1,3.9 8.1,8.7 0,0.5 -0.1,1.8 -0.1,1.8 h -12.7 c 0.3,3.2 2.8,4.9 5.5,4.9 3,0 5.3,-2 5.3,-2 l 1.8,3.3 c 0,0 -2.8,2.6 -7.4,2.6 -6.1,0 -9.9,-4.4 -9.9,-9.6 0.1,-5.7 4,-9.7 9.4,-9.7 z m 3.6,7.4 c -0.1,-2.5 -1.6,-3.8 -3.6,-3.8 -2.3,0 -4,1.4 -4.4,3.8 h 8 z"
       id="path35"
       inkscape:connector-curvature="0" /></g><g
     class="st0"
     id="g37"
     style="enable-background:new"
     transform="translate(-3.2,-5.0000001)"><path
       d="m 290,13.9 c 0,0 2,2 5,2 1.3,0 2.4,-0.6 2.4,-1.7 0,-2.7 -8.9,-2.4 -8.9,-8.3 0,-3.4 3.1,-5.4 7,-5.4 4.1,0 6.2,2.1 6.2,2.1 L 300,6 c 0,0 -1.7,-1.6 -4.5,-1.6 -1.2,0 -2.3,0.5 -2.3,1.7 0,2.6 8.9,2.3 8.9,8.2 0,3.1 -2.7,5.5 -7,5.5 -4.6,0 -7.1,-2.7 -7.1,-2.7 l 2,-3.2 z"
       id="path39"
       inkscape:connector-curvature="0" /></g><g
     id="g41"
     transform="translate(-3.2,-5.0000001)"><path
       d="m 344.2,19.1 h -26.4 c -3.7,0 -6.5,-2.9 -6.5,-6.5 v -1.8 h 4.5 v 1.8 c 0,1.1 0.9,2 2,2 h 26.4 c 1.1,0 2,-0.9 2,-2 v -1.8 h 4.5 v 1.8 c 0.1,3.7 -2.8,6.5 -6.5,6.5 z"
       id="path43"
       inkscape:connector-curvature="0" /></g></svg>