<?xml version="1.0" encoding="utf-8"?>
<!-- Generator: Adobe Illustrator 19.1.0, SVG Export Plug-In . SVG Version: 6.00 Build 0)  -->
<svg version="1.1" id="Layer_1" xmlns="http://www.w3.org/2000/svg" xmlns:xlink="http://www.w3.org/1999/xlink" x="0px" y="0px"
	 viewBox="114 -11.2 243.8 38.2" style="enable-background:new 114 -11.2 243.8 38.2;" xml:space="preserve">
<style type="text/css">
	.st0{enable-background:new    ;}
	.st1{fill:#E6007E;}
</style>
<g class="st0">
	<path d="M117.2-6.2h4.5V13c0,2,0.7,2.5,1.9,2.5c0.4,0,0.7,0,0.7,0v4c0,0-0.7,0.1-1.4,0.1c-2.5,0-5.7-0.6-5.7-5.9V-6.2z"/>
</g>
<g class="st0">
	<path d="M137.5,7.9h0.6V7.6c0-2.4-1.5-3.2-3.5-3.2c-2.6,0-5,1.8-5,1.8l-1.7-3.3c0,0,2.8-2.3,7.2-2.3c4.8,0,7.6,2.7,7.6,7.3v11.5
		h-4.2v-1.5c0-0.7,0.1-1.3,0.1-1.3h-0.1c0,0-1.4,3.2-5.6,3.2c-3.3,0-6.2-2.1-6.2-5.7C126.7,8.3,134.6,7.9,137.5,7.9z M134.1,16.3
		c2.4,0,4.1-2.6,4.1-4.8V11h-0.8c-2.3,0-6.1,0.3-6.1,2.9C131.3,15.1,132.2,16.3,134.1,16.3z"/>
	<path d="M147.2,1h4.6v10.9c0,2.2,0.6,3.7,2.8,3.7c3.3,0,5.1-2.9,5.1-6.2V1h4.6v18.4h-4.4v-2.1c0-0.7,0.1-1.3,0.1-1.3h-0.1
		c-0.9,1.9-3.2,3.8-6.4,3.8c-3.9,0-6.4-2-6.4-7V1z"/>
</g>
<g class="st0">
	<path d="M167.7,1h4.4v3.2c0,0.7-0.1,1.3-0.1,1.3h0.1c0.8-2.6,3-4.7,5.8-4.7c0.4,0,0.8,0.1,0.8,0.1v4.5c0,0-0.5-0.1-1.1-0.1
		c-1.9,0-4.1,1.1-5,3.9c-0.3,0.9-0.4,1.9-0.4,3v7.3h-4.6V1z"/>
	<path d="M189.9,0.6c5.3,0,8.1,3.9,8.1,8.7c0,0.5-0.1,1.8-0.1,1.8h-12.7c0.3,3.2,2.8,4.9,5.5,4.9c3,0,5.3-2,5.3-2l1.8,3.3
		c0,0-2.8,2.6-7.4,2.6c-6.1,0-9.9-4.4-9.9-9.6C180.6,4.6,184.4,0.6,189.9,0.6z M193.4,8c-0.1-2.5-1.6-3.8-3.6-3.8
		c-2.3,0-4,1.4-4.4,3.8H193.4z"/>
</g>
<g class="st0">
	<path d="M201.2,1h4.4v2.1c0,0.7-0.1,1.3-0.1,1.3h0.1c0.8-1.5,2.8-3.8,6.5-3.8c4.1,0,6.4,2.1,6.4,7v11.8H214V8.5
		c0-2.2-0.6-3.7-2.9-3.7c-2.4,0-4.2,1.5-4.9,3.7c-0.3,0.8-0.3,1.6-0.3,2.4v8.4h-4.6V1z"/>
</g>
<g class="st0">
	<path class="st1" d="M232.4,0.6c4,0,5.3,2.3,5.3,2.3h0.1c0,0,0-0.5,0-1v-8.1h4.6v25.6H238v-1.5c0-0.7,0.1-1.2,0.1-1.2H238
		c0,0-1.5,3.1-5.8,3.1c-5,0-8.1-3.9-8.1-9.6C224.1,4.4,227.5,0.6,232.4,0.6z M233.2,16c2.4,0,4.6-1.7,4.6-5.8c0-2.8-1.5-5.7-4.6-5.7
		c-2.5,0-4.6,2.1-4.6,5.7C228.7,13.7,230.5,16,233.2,16z"/>
</g>
<g class="st0">
	<path class="st1" d="M255.4,0.6c5.6,0,10.1,4,10.1,9.6c0,5.7-4.5,9.6-10.1,9.6c-5.6,0-10.1-4-10.1-9.6
		C245.4,4.6,249.9,0.6,255.4,0.6z M255.5,15.9c3,0,5.4-2.3,5.4-5.7c0-3.4-2.5-5.7-5.4-5.7c-3,0-5.5,2.3-5.5,5.7
		C250,13.6,252.5,15.9,255.5,15.9z"/>
</g>
<g class="st0">
	<path class="st1" d="M277.2,0.6c5.3,0,8.1,3.9,8.1,8.7c0,0.5-0.1,1.8-0.1,1.8h-12.7c0.3,3.2,2.8,4.9,5.5,4.9c3,0,5.3-2,5.3-2
		l1.8,3.3c0,0-2.8,2.6-7.4,2.6c-6.1,0-9.9-4.4-9.9-9.6C267.9,4.6,271.8,0.6,277.2,0.6z M280.8,8c-0.1-2.5-1.6-3.8-3.6-3.8
		c-2.3,0-4,1.4-4.4,3.8H280.8z"/>
</g>
<g class="st0">
	<path class="st1" d="M290,13.9c0,0,2,2,5,2c1.3,0,2.4-0.6,2.4-1.7c0-2.7-8.9-2.4-8.9-8.3c0-3.4,3.1-5.4,7-5.4
		c4.1,0,6.2,2.1,6.2,2.1l-1.7,3.4c0,0-1.7-1.6-4.5-1.6c-1.2,0-2.3,0.5-2.3,1.7c0,2.6,8.9,2.3,8.9,8.2c0,3.1-2.7,5.5-7,5.5
		c-4.6,0-7.1-2.7-7.1-2.7L290,13.9z"/>
</g>
<g>
	<path d="M344.2,19.1h-26.4c-3.7,0-6.5-2.9-6.5-6.5v-1.8h4.5v1.8c0,1.1,0.9,2,2,2h26.4c1.1,0,2-0.9,2-2v-1.8h4.5v1.8
		C350.8,16.3,347.9,19.1,344.2,19.1z"/>
</g>
</svg>
