<?xml version="1.0" encoding="UTF-8" standalone="no"?>
<!-- Created with Inkscape (http://www.inkscape.org/) -->

<svg
   xmlns:dc="http://purl.org/dc/elements/1.1/"
   xmlns:cc="http://creativecommons.org/ns#"
   xmlns:rdf="http://www.w3.org/1999/02/22-rdf-syntax-ns#"
   xmlns:svg="http://www.w3.org/2000/svg"
   xmlns="http://www.w3.org/2000/svg"
   version="1.1"
   width="100%"
   height="100%"
   viewBox="116.4 -7.2 44 27.4"
   id="Layer_1"
   xml:space="preserve"><metadata
     id="metadata17"><rdf:RDF><cc:Work
         rdf:about=""><dc:format>image/svg+xml</dc:format><dc:type
           rdf:resource="http://purl.org/dc/dcmitype/StillImage" /><dc:title></dc:title></cc:Work></rdf:RDF></metadata><defs
     id="defs15" /><style
     type="text/css"
     id="style3" /><g
     id="g5"
     style="fill:#ffffff;fill-opacity:1;enable-background:new"><path
       d="m 117.2,-6.2 h 4.5 V 13 c 0,2 0.7,2.5 1.9,2.5 0.4,0 0.7,0 0.7,0 v 4 c 0,0 -0.7,0.1 -1.4,0.1 -2.5,0 -5.7,-0.6 -5.7,-5.9 V -6.2 z"
       id="path7"
       style="fill:#ffffff;fill-opacity:1" /></g><g
     id="g9"><path
       d="m 153.3,19.6 h -17.4 c -3.7,0 -6.5,-2.9 -6.5,-6.5 v -1.8 h 4.5 V 13 c 0,1.1 0.9,2 2,2 h 17.4 c 1.1,0 2,-0.9 2,-2 v -1.8 h 4.5 V 13 c 0,3.7 -2.8,6.6 -6.5,6.6 z"
       id="path11"
       style="fill:#e6007e" /></g></svg>