<?xml version="1.0" encoding="utf-8"?>
<!-- Generator: Adobe Illustrator 19.1.0, SVG Export Plug-In . SVG Version: 6.00 Build 0)  -->
<svg version="1.1" id="Layer_1" xmlns="http://www.w3.org/2000/svg" xmlns:xlink="http://www.w3.org/1999/xlink" x="0px" y="0px"
	 viewBox="116.4 -7.2 44 27.4" style="enable-background:new 116.4 -7.2 44 27.4;" xml:space="preserve">
<style type="text/css">
	.st0{enable-background:new    ;}
	.st1{fill:#E6007E;}
</style>
<g class="st0">
	<path d="M117.2-6.2h4.5V13c0,2,0.7,2.5,1.9,2.5c0.4,0,0.7,0,0.7,0v4c0,0-0.7,0.1-1.4,0.1c-2.5,0-5.7-0.6-5.7-5.9V-6.2z"/>
</g>
<g>
	<path class="st1" d="M153.3,19.6h-17.4c-3.7,0-6.5-2.9-6.5-6.5v-1.8h4.5V13c0,1.1,0.9,2,2,2h17.4c1.1,0,2-0.9,2-2v-1.8h4.5V13
		C159.8,16.7,157,19.6,153.3,19.6z"/>
</g>
</svg>
