<?xml version="1.0" encoding="utf-8"?>
<!-- Generator: Adobe Illustrator 19.1.0, SVG Export Plug-In . SVG Version: 6.00 Build 0)  -->
<svg version="1.1" id="Layer_1" xmlns="http://www.w3.org/2000/svg" xmlns:xlink="http://www.w3.org/1999/xlink" x="0px" y="0px"
	 viewBox="0 0 15.4 15" style="enable-background:new 0 0 15.4 15;" xml:space="preserve">
<style type="text/css">
	.st0{fill:#FFFFFF;}
</style>
<g id="linkedin_2_">
	<g>
		<path class="st0" d="M0.5,15h3V5h-3V15z M12.1,4.7c-1.4,0-2.7,0.5-3.7,1.7V5h-3v10h3V9.6c0-1.1,1-2.3,2.4-2.3s1.6,1.1,1.6,2.2V15
			h3V9.3C15.4,5.4,13.6,4.7,12.1,4.7z M2,0C0.9,0,0,0.8,0,1.8s0.9,1.8,2,1.8c1.1,0,2-0.8,2-1.8S3,0,2,0z"/>
	</g>
</g>
</svg>
