<?xml version="1.0" encoding="utf-8"?>
<!-- Generator: Adobe Illustrator 19.2.0, SVG Export Plug-In . SVG Version: 6.00 Build 0)  -->
<svg version="1.1" id="Layer_1" xmlns="http://www.w3.org/2000/svg" xmlns:xlink="http://www.w3.org/1999/xlink" x="0px" y="0px"
	 width="165.7px" height="227.3px" viewBox="0 0 165.7 227.3" style="enable-background:new 0 0 165.7 227.3;" xml:space="preserve"
	>
<style type="text/css">
	.st0{fill:#262350;}
	.st1{fill:#E5097E;}
	.st2{fill:#F49E0F;}
	.st3{fill:#32BCE0;}
	.st4{fill:#EE7511;}
	.st5{fill:#4F266D;}
	.st6{fill:#2F8234;}
	.st7{fill:#9A145C;}
</style>
<g>
	<path class="st1" d="M89.4,224.1H53.1c-17.9,0-32.5-14.6-32.5-32.5v-11.9h23.9v11.9c0,4.8,3.9,8.6,8.6,8.6h36.3
		c4.8,0,8.6-3.9,8.6-8.6v-11.9h23.9v11.9C121.9,209.5,107.3,224.1,89.4,224.1z"/>
</g>
<g>
	<path class="st1" d="M141.3,46.7c-14.3,0-21.8-8.9-26.7-14.8c-4.4-5.3-5.6-6.2-8.3-6.2c-2.7,0-3.9,0.9-8.3,6.2
		C93,37.8,85.6,46.7,71.3,46.7s-21.8-8.9-26.7-14.8c-4.4-5.3-5.6-6.2-8.3-6.2c-2.7,0-3.9,0.9-8.3,6.2C23,37.8,15.6,46.7,1.2,46.7
		V22.8c2.7,0,3.9-0.9,8.3-6.2c4.9-5.9,12.3-14.8,26.7-14.8S58,10.7,62.9,16.6c4.4,5.3,5.6,6.2,8.3,6.2c2.7,0,3.9-0.9,8.3-6.2
		C84.5,10.7,92,1.9,106.3,1.9s21.8,8.9,26.7,14.8c4.4,5.3,5.6,6.2,8.3,6.2V46.7z"/>
</g>
<circle class="st1" cx="23.9" cy="96.4" r="13.2"/>
<path class="st3" d="M162.6,107.8c-0.4-1.3-1-2.3-1.8-3s-1.9-0.8-3-0.5c-0.9,0.2-1.7,0.8-2.6,1.6c-5.1,5.4-9.7,10.1-13.6,14.1
	c-2.1,1.7-4.1,3.1-5.8,4.3c-2.5,1.6-4.9,2.7-7,3.3c-1.1,0.3-2,0.3-2.5-0.1c-0.6-0.4-1-0.9-1.1-1.6c-0.1-0.4-0.1-1,0-1.7
	c0.1-0.7,0.4-1.4,0.7-2.2c0.3-0.7,0.8-1.5,1.3-2.2c0.6-0.7,1.2-1.4,1.9-2c2.9-2.1,5.8-4.6,8.6-7.4c2.9-2.7,5.4-5.7,7.5-8.8
	c2.1-3.1,3.6-6.5,4.5-10c0.9-3.5,0.9-7.1-0.1-10.9c-0.6-2.3-1.7-4.1-3.1-5.4c-1.5-1.3-3.2-2.2-5.1-2.8c-1.9-0.5-4-0.8-6.2-0.7
	c-2.2,0.1-4.2,0.4-6.2,0.9c-3.3,0.9-6.3,2.3-9,4.2c-2.7,1.9-5.2,4.1-7.4,6.7c-2.2,2.5-4.3,5.2-6.2,8.2c-1.9,2.9-3.6,5.8-5.3,8.7
	c1.3-5.1,2.6-10.4,3.7-16c1.1-5.6,2.7-12.7,4-18.9c0.5-2.3,1-4.3,1.2-5.9c0.2-1.6,0.2-3-0.2-4.3c-0.4-1.4-1.2-2.4-2.5-3.2
	c-1.2-0.7-3.4-0.6-5.9,0c-1.1,0.3-2.1,0.7-3,1.3c-0.9,0.6-1.8,1.1-2.5,1.9c-0.8,0.8-1.5,1.8-2,2.7c-0.8,1.7-1.5,4.2-1.6,5.1
	l-6.1,31.9c-0.4,2.2-0.9,4.9-1.6,8.2c-0.6,3.3-1.3,6.8-2,10.5c-0.7,3.7-1.4,7.6-2.1,11.4c-0.3,1.5-0.5,3-0.8,4.5
	c-0.3,2.1-1.2,4.1-2.6,5.8c0,0,0,0,0,0c-1.8,2.3-3.7,4.5-5.6,6.7c-1.9,2.2-3.8,4.1-5.6,5.9c-1.8,1.8-3.6,3.3-5.2,4.5
	c-1.7,1.2-3.1,2-4.3,2.3c-1,0.3-1.7,0.2-2.2-0.2c-0.5-0.4-0.9-1.1-1.1-2c-0.4-1.4-0.5-3.1-0.4-5c0.1-2,0.3-3.7,0.6-5.2
	c0.6-3.6,1.4-7.8,2.2-12.6c0.9-4.9,1.8-10,2.8-15.4c1-5.4,2.1-11,3.2-16.7c1.1-5.7,2.4-12.3,3.4-16.9c1-4.5,1.8-8.4,2.5-11.5
	c0.4-1.6,0.7-3,0.9-4.3c0.2-1.3,0.1-2.5-0.1-3.5c-0.6-2.2-1.8-3.6-3.5-4.2c-1.8-0.6-3.6-0.6-5.4-0.2c-1.8,0.5-3.5,1.4-5,2.9
	c-1.5,1.4-2.5,3.4-3,6l-8.6,49.4c-0.8,4.2-1.6,8.9-2.5,14c-0.9,5.1-1.6,8.8-2.4,13.9c-0.4,3-1,7.3-1,10.5c0,3.2,0.3,6.3,1.1,9.2
	c0.5,1.7,1.1,3.3,1.9,4.7c0.8,1.4,1.9,2.5,3.1,3.4c1.3,0.9,2.8,1.4,4.6,1.6c1.8,0.2,3.9,0,6.3-0.6c3.5-0.9,7-2.6,10.3-5
	c3.3-2.4,6.6-5.3,9.7-8.7c1.4-1.6,2.9-3.2,4.3-4.9c0.4,1.2,1,2,1.8,2.3c0.9,0.4,2.2,0.4,3.9-0.1c3.6-1,7-4.6,10.1-11
	c1-2.4,2-4.9,3-7.5c1-2.6,2-5.3,3.1-8.1c1.1-2.8,2.3-5.7,3.7-8.7c1.3-3,2.9-6.1,4.6-9.3c7.5-14.1,14.2-22,20.1-23.6
	c1.6-0.4,2.6,0.2,3.1,1.9c0.3,1.1,0.3,2.2,0,3.3c-0.3,1.2-0.8,2.4-1.5,3.7c-0.7,1.3-1.5,2.5-2.5,3.8c-1,1.3-2.1,2.5-3.2,3.7
	c-1.5,1.7-3.3,3.7-5.4,5.9c-2.1,2.2-4,4.7-5.8,7.5c-1.7,2.8-3,5.9-3.9,9.2c-0.8,3.3-0.7,6.9,0.3,10.7c1.9,7.2,7.1,9.7,15.4,7.5
	c4.8-1.3,9.3-3.2,13.5-5.8c4.2-2.6,8.2-5.6,12-8.9c0,0,2.7-2.6,5-5.3c2.1-2.5,4.3-5.8,4.8-6.6c0.9-1.5,1.6-2.9,2-4.3
	C162.9,111.5,163,109.5,162.6,107.8z"/>
</svg>
