<?xml version="1.0" encoding="utf-8"?>
<!-- Generator: Adobe Illustrator 19.2.0, SVG Export Plug-In . SVG Version: 6.00 Build 0)  -->
<svg version="1.1" id="points" xmlns="http://www.w3.org/2000/svg" xmlns:xlink="http://www.w3.org/1999/xlink" x="0px" y="0px"
	 width="145.1px" height="135px" viewBox="0 0 145.1 135" style="enable-background:new 0 0 145.1 135;" xml:space="preserve">
<style type="text/css">
	.st0{fill:#FAFAFA;}
	.st1{fill:none;stroke:#1D1D1B;stroke-miterlimit:10;}
	.st2{fill:#E1E1E1;}
	.st3{fill:none;stroke:#1D1D1B;stroke-linecap:round;stroke-linejoin:round;stroke-miterlimit:10;}
</style>
<title>project-grave</title>
<rect class="st0" width="145.1" height="135"/>
<path class="st1" d="M34.1,112.6v-48c0-20.6,16.6-37.3,37.2-37.3c0,0,0,0,0.1,0l0,0c20.6,0,37.2,16.7,37.2,37.2l0,0v28.3"/>
<path class="st2" d="M43.8,74.1v-1.6h6.3v1.6H43.8z"/>
<path class="st2" d="M43.8,71.1v-1.6l3-1.8c0.4-0.2,0.7-0.4,1.1-0.5l0,0c0,0-0.7,0.1-1.1,0.1h-3v-1.6h6.3v1.6l-3,1.8
	c-0.4,0.2-0.7,0.4-1.1,0.5l0,0c0,0,0.7-0.1,1.1-0.1h3v1.6H43.8L43.8,71.1z"/>
<path class="st2" d="M44.2,61l0.4-1.5l4.8,1.3l0.7-2.5l1.3,0.3l-1,4L44.2,61z"/>
<path class="st2" d="M47.3,52.5c0.8-1.6,2.8-2.2,4.3-1.3c0,0,0.1,0,0.1,0.1c1.6,0.9,2.1,3,1.2,4.5C52,57.4,50,57.9,48.4,57
	c-1.5-0.9-2.1-2.8-1.2-4.4C47.3,52.6,47.3,52.5,47.3,52.5z M51.8,55.1c0.5-0.9,0.1-2-0.8-2.4l0,0c-0.8-0.5-1.9-0.2-2.4,0.6
	s-0.2,1.9,0.6,2.4C50.1,56.2,51.2,55.9,51.8,55.1L51.8,55.1L51.8,55.1z"/>
<path class="st2" d="M50.2,48.4l1.2-1.2l3.3,1.8c0.4,0.2,0.9,0.6,0.9,0.6l0,0c0,0-0.3-0.5-0.5-0.9l-1.7-3.4l1.2-1.1l2.7,6.1
	l-1.2,1.1L50.2,48.4z"/>
<path class="st2" d="M56,43.4l1.3-0.8l3.4,5.4l-1.3,0.8L56,43.4z"/>
<path class="st2" d="M59.5,41.3l1.5-0.5l2.6,2.2c0.3,0.3,0.6,0.5,0.9,0.8l0,0c0,0-0.3-0.6-0.4-1l-1-2.8l1.5-0.5l2.1,6L65.2,46
	l-2.7-2.2c-0.3-0.3-0.6-0.5-0.9-0.8l0,0c0,0,0.3,0.6,0.4,1l1,2.8l-1.5,0.5L59.5,41.3z"/>
<path class="st2" d="M70.3,38.7c0.9-0.1,1.8,0.2,2.5,0.7l-0.7,1.2c-0.5-0.3-1-0.5-1.6-0.5c-0.9-0.1-1.7,0.6-1.8,1.6
	c0,0.1,0,0.2,0,0.3c0,1,0.8,1.8,1.8,1.8h0.1c0.5,0,0.9-0.2,1.3-0.5v-0.5H71l-0.1-1.3l2.3-0.1l0.2,3.6L72,45.1v-0.2
	c0-0.1,0-0.3,0-0.3l0,0c-0.5,0.4-1,0.6-1.6,0.6c-1.7,0.1-3.2-1.2-3.2-2.9c0-0.1,0-0.1,0-0.2C67.1,40.3,68.4,38.8,70.3,38.7
	C70.2,38.7,70.2,38.7,70.3,38.7z"/>
<path class="st2" d="M78.5,39.6l1.6,0.6L80,43c0,0.4-0.1,1.1-0.1,1.1l0,0c0,0,0.4-0.5,0.7-0.9l1.8-2.2l1.6,0.6l-1.8,6.1l-1.4-0.6
	l0.8-2.7c0.1-0.3,0.2-0.7,0.4-1l0,0c0,0-0.4,0.5-0.7,0.9L80,45.8l-1.2-0.5v-2c0-0.4,0.1-1.1,0.1-1.1l0,0c-0.1,0.3-0.2,0.7-0.4,1
	l-1.2,2.6l-1.5-0.6L78.5,39.6z"/>
<path class="st2" d="M86.7,43.4l3.1,2.4l-0.8,1l-1.9-1.5l-0.7,0.9l1.5,1.2l-0.8,1l-1.5-1.2l-0.7,1l2,1.5l-0.8,1l-3.2-2.5L86.7,43.4z
	"/>
<path class="st2" d="M92,47.8l1,1.4l-1.6,2.3c-0.2,0.3-0.7,0.9-0.7,0.9l0,0c0,0,0.6-0.2,1-0.4l2.7-0.8l1,1.4l-4.8,4.1l-0.9-1.2
	l2.2-1.8c0.3-0.2,0.6-0.4,0.9-0.6l0,0l-1.1,0.3l-1.9,0.5L89,52.8l1.1-1.6c0.2-0.3,0.7-0.9,0.7-0.9l0,0c-0.3,0.2-0.6,0.4-0.9,0.6
	l-2.4,1.5l-0.9-1.3L92,47.8z"/>
<path class="st2" d="M97.9,58.4c0.6,1.7-0.3,3.5-2,4.1h-0.1C94,63,92.1,62,91.6,60.3c-0.5-1.8,0.5-3.6,2.2-4.1s3.5,0.4,4,2.1
	C97.8,58.3,97.8,58.3,97.9,58.4z M92.9,59.9c0.3,0.9,1.3,1.4,2.3,1.1l0,0c0.9-0.3,1.4-1.2,1.2-2.1c-0.3-0.9-1.2-1.4-2.1-1.2
	c0,0,0,0-0.1,0C93.3,57.9,92.7,58.9,92.9,59.9C92.9,59.8,92.9,59.8,92.9,59.9L92.9,59.9z"/>
<path class="st2" d="M98.9,64.1v2.2c0,0.4,0,0.8-0.2,1.2c-0.3,0.8-1,1.2-1.8,1.2c-0.7,0-1.4-0.3-1.7-0.9l0,0
	C95.1,67.9,95,68,94.8,68l-2.2,1.2v-1.7l2.1-1.1v-0.7h-2.2v-1.6C92.6,64.1,98.9,64.1,98.9,64.1z M96.1,66.3c0,0.4,0.2,0.8,0.6,0.8
	h0.1c0.5,0,0.8-0.2,0.8-1v-0.5h-1.5V66.3z"/>
<path class="st2" d="M95.2,71.3l3.7-2.1V71l-1.5,0.7c-0.4,0.2-0.9,0.4-0.9,0.4l0,0c0,0,0.5,0.2,0.9,0.4l1.5,0.7V75l-3.7-2.1h-2.6
	v-1.6H95.2z"/>
<path class="st2" d="M52.4,79.1L55,89c0.2,0.7,0.3,1.4,0.3,1.4l0,0c0.1-0.5,0.2-1,0.3-1.4l2.5-9.8H60l-3.5,13.3h-2.2L52,83.8
	c-0.2-0.8-0.4-1.9-0.4-1.9l0,0c0,0-0.2,1-0.4,1.9l-2.3,8.7h-2.2l-3.4-13.4h1.9l2.4,9.9c0.1,0.5,0.2,0.9,0.2,1.4l0,0
	c0.1-0.5,0.2-1,0.3-1.4l2.6-9.8L52.4,79.1L52.4,79.1z"/>
<path class="st2" d="M68.3,78.9c3.7-0.1,6.8,2.9,6.9,6.6c0,0.1,0,0.1,0,0.2c0,3.8-3.1,6.9-6.9,6.9s-6.9-3.1-6.9-6.9l0,0
	c0-3.7,3-6.8,6.7-6.8C68.2,78.9,68.3,78.9,68.3,78.9z M68.3,91c2.8-0.1,5-2.4,4.9-5.2v-0.1c0.1-2.7-2-5-4.7-5.2s-5,2-5.2,4.7
	c0,0.1,0,0.3,0,0.4C63.3,88.5,65.4,90.9,68.3,91L68.3,91L68.3,91z"/>
<path class="st2" d="M77.9,79.1H82c0.8-0.1,1.7,0,2.5,0.3c2,1,2.8,3.4,1.8,5.4c-0.4,0.8-1.1,1.5-2,1.9l0,0c0.2,0.2,0.3,0.4,0.4,0.6
	l2.8,5.2h-2.1l-2.8-5.3h-2.9v5.3h-1.9L77.9,79.1L77.9,79.1z M82.5,85.6c1.2,0.1,2.3-0.8,2.4-2.1c0-0.1,0-0.2,0-0.4
	c0.1-0.8-0.3-1.6-1.1-2.1c-0.6-0.3-1.2-0.4-1.8-0.3h-2.2v4.8L82.5,85.6L82.5,85.6z"/>
<path class="st2" d="M90,79.1h1.9v5.6h2l3.4-5.6h2.1l-3.9,6.3l0,0l4.1,7h-2.1l-3.6-6.1h-2v6.1H90V79.1z"/>
<path class="st2" d="M68.9,59.7c1.8-0.1,3.3,1.3,3.3,3.1c0,0.1,0,0.1,0,0.2c-0.1,1.8-1.7,3.2-3.5,3.1c-1.7-0.1-3-1.4-3.1-3.1
	c0-1.8,1.4-3.2,3.1-3.3C68.8,59.7,68.8,59.7,68.9,59.7z M68.9,64.8c1,0,1.7-0.9,1.7-1.8c0-0.9-0.8-1.7-1.7-1.7
	c-0.9,0-1.7,0.8-1.7,1.7l0,0C67.2,64,67.9,64.8,68.9,64.8z"/>
<path class="st2" d="M73.3,59.8h3.9v1.3h-2.3v1.3h1.9v1.3h-1.9V66h-1.6V59.8z"/>
<path class="st3" d="M-10.4,112.7h51.7c0-0.3,0.9-7.3-3.4-11.8c2.5,1.2,4.4,3.3,5.4,5.9c0,0,0.3-8.1-2.7-13.3c0,0,7.9,4.7,7.9,14.1
	c0,0,1.7-3.4,4.4-4.5c0,0-2.3,5-1.7,9.6h9.5h37.4c0.5-3.1-0.3-6.4-2.2-8.9c2.2,0,4.3,0.5,6.2,1.4c0.1-12.7,11.1-14.1,11.1-14.1
	c-3.6,6.2-3.2,15.8-3.2,15.8c1.6-5,7.2-4.3,7.2-4.3c-4.4,5.8-4,10.2-4,10.2h35.6"/>
</svg>
