<?xml version="1.0" encoding="utf-8"?>
<!-- Generator: Adobe Illustrator 19.1.0, SVG Export Plug-In . SVG Version: 6.00 Build 0)  -->
<svg version="1.1" id="Layer_1" xmlns="http://www.w3.org/2000/svg" xmlns:xlink="http://www.w3.org/1999/xlink" x="0px" y="0px"
	 viewBox="0 0 54.2 14.6" style="enable-background:new 0 0 54.2 14.6;" xml:space="preserve">
<style type="text/css">
	.st0{fill:#E6007E;}
</style>
<g>
	<path class="st0" d="M0.1,14.6c0,0-0.1,0-0.1,0l0.1-6.3c0.8,0.1,1.7-0.3,2.3-0.9l4.7-4.7c3.6-3.6,9.6-3.7,13.2,0L25,7.5
		c0.6,0.6,1.4,0.9,2.2,0.9h0c0.8,0,1.6-0.3,2.2-0.9l4.7-4.7c3.6-3.7,9.6-3.7,13.2,0l4.7,4.7c0.6,0.6,1.3,0.9,2.1,0.9l0,6.3
		c-2.5-0.1-4.8-1-6.5-2.7l-4.7-4.7c-1.2-1.2-3.2-1.2-4.4,0l-4.7,4.7c-1.8,1.8-4.1,2.7-6.6,2.7h0c-2.5,0-4.9-1-6.6-2.7l-4.7-4.7
		c-1.2-1.2-3.2-1.2-4.4,0l-4.7,4.7C5,13.7,2.6,14.6,0.1,14.6z"/>
</g>
</svg>
