<?xml version="1.0" encoding="utf-8"?>
<!-- Generator: Adobe Illustrator 19.2.0, SVG Export Plug-In . SVG Version: 6.00 Build 0)  -->
<svg version="1.1" id="Layer_1" xmlns="http://www.w3.org/2000/svg" xmlns:xlink="http://www.w3.org/1999/xlink" x="0px" y="0px"
	 width="1231px" height="401px" viewBox="0 0 1231 401" style="enable-background:new 0 0 1231 401;" xml:space="preserve">
<style type="text/css">
	.st0{fill:#1F1F1D;stroke:#1F1F1D;stroke-width:2;stroke-miterlimit:10;}
	.st1{fill:#1F1F1D;}
	.st2{fill:#1F1F1D;stroke:#1F1F1D;stroke-miterlimit:10;}
	.st3{fill:#E9E8E8;}
	.st4{fill:#D3D719;}
	.st5{fill:#E41379;}
	.st6{fill:#213F8E;}
</style>
<g>
	<path class="st0" d="M355.5,106.5v72h7v-65h230v169h-230v-11h-7v18h244v-183H355.5z"/>
</g>
<g>
	<path class="st1" d="M211.2,210.5c-2.3,0-4.2,0.5-5.5,1.6c-1.3,1-2,2.4-2,4c0,1.6,0.7,3,2.1,4.1c1.4,1.1,3.3,2.1,5.7,3.2
		c2.4,1.1,4.2,2,5.5,2.6c1.2,0.7,2.6,1.6,4,2.8c2.9,2.4,4.4,5.8,4.4,10.1c0,4.4-1.6,7.9-4.8,10.5c-3.2,2.7-7.5,4-13,4
		s-10-1.1-13.7-3.2v-9.6c4.3,3.1,8.9,4.6,14,4.6c2.3,0,4.1-0.6,5.5-1.7c1.4-1.1,2.1-2.6,2.1-4.5c0-0.9-0.2-1.7-0.5-2.4
		c-0.3-0.7-1.1-1.4-2.2-2.1c-2.1-1.4-4.4-2.6-7.1-3.6c-1.8-0.8-3.3-1.6-4.5-2.3c-1.1-0.7-2.4-1.6-3.7-2.7c-2.7-2.3-4-5.5-4-9.7
		c0-4.2,1.6-7.5,4.7-10.1c3.2-2.6,7.2-3.9,12.2-3.9c5,0,9.2,0.8,12.6,2.5v9.1C219.4,211.6,215.4,210.5,211.2,210.5z"/>
	<path class="st1" d="M265.4,202.7v7.7h-12.7v42.4h-9.5v-42.4h-12.7v-7.7H265.4z"/>
	<path class="st1" d="M295.1,252.9h-9.4v-18.3l-17.1-31.9h10.9c6,13,9.6,21.1,10.8,24.3c0.4-1.8,3-7.5,7.7-17l3.4-7.3h10.9
		l-17.3,31.6V252.9z"/>
	<path class="st1" d="M328.3,244.5h19.6v8.3h-29v-50.2h9.4V244.5z"/>
	<path class="st1" d="M359.4,209.2c-1.5,0-2.8-0.5-3.8-1.6c-1-1-1.6-2.3-1.6-3.8c0-1.5,0.5-2.8,1.6-3.8c1-1,2.3-1.6,3.8-1.6
		c1.5,0,2.8,0.5,3.8,1.6c1,1,1.6,2.3,1.6,3.8c0,1.5-0.5,2.8-1.6,3.8C362.1,208.7,360.9,209.2,359.4,209.2z M354.9,252.9v-37.7h8.9
		v37.7H354.9z"/>
	<path class="st1" d="M374.3,252.9v-50.2h10.6c10.1,17.6,15.9,27.8,17.5,30.7c1.5,2.8,2.8,5.5,3.9,8c-0.4-4.1-0.6-10-0.6-17.7v-20.9
		h9.5v50.2h-10.7L392.2,232c-3.9-6.6-7-12.6-9.4-18c0.5,4.7,0.8,10.7,0.8,17.9v20.9H374.3z"/>
	<path class="st1" d="M425.5,202.7h16.4c7.5,0,13.6,2.3,18.4,6.9c4.8,4.6,7.1,10.6,7.1,18c0,7.4-2.3,13.4-6.9,18.2
		c-4.6,4.7-10.8,7.1-18.6,7.1h-16.4V202.7z M435.1,245.1h6.6c5.3,0,9.3-1.6,12-4.9c2.7-3.3,4.1-7.4,4.1-12.6c0-5.1-1.5-9.3-4.4-12.4
		c-2.9-3.1-6.9-4.7-11.9-4.7h-6.5V245.1z"/>
	<path class="st1" d="M485.2,245.2h20.5v7.7h-29.9v-50.2h29.6v7.7h-20.2V224h17.9v7.6h-17.9V245.2z"/>
	<path class="st1" d="M533.5,219.1l9.3-16.5h11.4L539,227.5l16.5,25.4h-11.2l-10.6-17.3c-0.7,1.4-2.5,4.5-5.3,9.1
		c-2.8,4.6-4.4,7.4-4.9,8.2h-11.2l15.9-25.4L513,202.7h10.9L533.5,219.1z"/>
</g>
<g>
	<path class="st2" d="M888,132.4V170h7v-30.2l68-0.2V246l-68,0.2V240h-7v13.7l83-0.3V132.1L888,132.4z"/>
</g>
<g>
	<path class="st1" d="M868.4,191c-2.1,0-3.7,0.5-4.8,1.4s-1.7,2.1-1.7,3.5c0,1.4,0.6,2.6,1.9,3.6c1.2,0.9,2.9,1.9,5.1,2.9
		c2.1,1,3.7,1.7,4.8,2.3c1.1,0.6,2.3,1.4,3.5,2.5c2.6,2.1,3.9,5.1,3.9,8.9c0,3.8-1.4,6.9-4.2,9.3c-2.8,2.3-6.6,3.5-11.4,3.5
		c-4.8,0-8.8-0.9-12.1-2.8v-8.5c3.8,2.7,7.9,4.1,12.3,4.1c2,0,3.6-0.5,4.9-1.5c1.2-1,1.8-2.3,1.8-4c0-0.8-0.2-1.5-0.5-2.1
		c-0.3-0.6-0.9-1.2-1.9-1.8c-1.8-1.2-3.9-2.3-6.2-3.2c-1.6-0.7-2.9-1.4-3.9-2c-1-0.6-2.1-1.4-3.3-2.4c-2.4-2-3.5-4.9-3.5-8.5
		c0-3.7,1.4-6.6,4.2-8.9c2.8-2.3,6.4-3.4,10.7-3.4c4.4,0,8.1,0.7,11.1,2.2v8C875.6,192,872.1,191,868.4,191z"/>
	<path class="st1" d="M891.9,189.9c-1.3,0-2.4-0.5-3.3-1.4s-1.4-2-1.4-3.4c0-1.3,0.5-2.5,1.4-3.4s2-1.4,3.3-1.4
		c1.3,0,2.4,0.5,3.3,1.4s1.4,2,1.4,3.4c0,1.3-0.5,2.5-1.4,3.4S893.2,189.9,891.9,189.9z M888,228.9v-33.8h7.9v33.8H888z"/>
</g>
</svg>
