<?xml version="1.0" encoding="utf-8"?>
<!-- Generator: Adobe Illustrator 19.2.0, SVG Export Plug-In . SVG Version: 6.00 Build 0)  -->
<svg version="1.1" id="Layer_1" xmlns="http://www.w3.org/2000/svg" xmlns:xlink="http://www.w3.org/1999/xlink" x="0px" y="0px"
	 width="1231px" height="401px" viewBox="0 0 1231 401" style="enable-background:new 0 0 1231 401;" xml:space="preserve">
<style type="text/css">
	.st0{fill:#1F1F1D;stroke:#1F1F1D;stroke-width:2;stroke-miterlimit:10;}
	.st1{fill:#1F1F1D;}
	.st2{fill:#1F1F1D;stroke:#1F1F1D;stroke-miterlimit:10;}
	.st3{fill:#E9E8E8;}
	.st4{fill:#D3D719;}
	.st5{fill:#E41379;}
	.st6{fill:#213F8E;}
</style>
<g>
	<rect x="149.2" y="144.7" class="st3" width="87.4" height="87.4"/>
</g>
<g>
	<rect x="243.3" y="144.7" class="st4" width="87.4" height="87.4"/>
</g>
<g>
	<rect x="149.2" y="239.9" class="st4" width="87.4" height="87.4"/>
</g>
<g>
	<rect x="243.3" y="239.9" class="st5" width="87.4" height="87.4"/>
</g>
<rect x="799.6" y="144.7" class="st6" width="87.4" height="87.4"/>
<rect x="893.6" y="144.7" class="st3" width="87.4" height="87.4"/>
<rect x="799.6" y="239.9" class="st4" width="87.4" height="87.4"/>
<rect x="987.7" y="144.7" class="st4" width="87.4" height="87.4"/>
<rect x="987.7" y="239.9" class="st3" width="87.4" height="87.4"/>
<rect x="893.6" y="239.9" class="st5" width="87.4" height="87.4"/>
<g>
	<path class="st3" d="M519.6,232L519.6,232c-24.1,0-43.7-19.6-43.7-43.7v0c0-24.1,19.6-43.7,43.7-43.7h0c24.1,0,43.7,19.6,43.7,43.7
		v0C563.3,212.5,543.8,232,519.6,232z"/>
</g>
<g>
	<path class="st6" d="M613.7,232L613.7,232c-24.1,0-43.7-19.6-43.7-43.7v0c0-24.1,19.6-43.7,43.7-43.7h0c24.1,0,43.7,19.6,43.7,43.7
		v0C657.4,212.5,637.8,232,613.7,232z"/>
</g>
<g>
	<path class="st6" d="M519.6,327.3L519.6,327.3c-24.1,0-43.7-19.6-43.7-43.7v0c0-24.1,19.6-43.7,43.7-43.7h0
		c24.1,0,43.7,19.6,43.7,43.7v0C563.3,307.7,543.8,327.3,519.6,327.3z"/>
</g>
<g>
	<path class="st4" d="M613.7,327.3L613.7,327.3c-24.1,0-43.7-19.6-43.7-43.7v0c0-24.1,19.6-43.7,43.7-43.7h0
		c24.1,0,43.7,19.6,43.7,43.7v0C657.4,307.7,637.8,327.3,613.7,327.3z"/>
</g>
<polygon class="st1" points="356.8,84.2 356.8,304.8 209.8,304.8 209.8,131.6 212.8,131.6 212.8,301.8 353.8,301.8 353.8,87.2 
	212.8,87.2 212.8,100.5 209.8,100.5 209.8,84.2 "/>
<path class="st1" d="M159.1,115.5c-0.5-0.2-1.1-0.6-2-1c-0.9-0.4-1.6-0.8-2.1-1.2c-0.5-0.4-0.8-0.9-0.8-1.5c0-0.6,0.2-1.1,0.7-1.5
	c0.5-0.4,1.2-0.6,2-0.6c1.5,0,3,0.4,4.4,1.2v-3.3c-1.3-0.6-2.8-0.9-4.6-0.9c-1.8,0-3.3,0.5-4.5,1.4c-1.2,0.9-1.7,2.2-1.7,3.7
	c0,1.5,0.5,2.7,1.5,3.6c0.5,0.4,0.9,0.8,1.4,1c0.4,0.2,1,0.5,1.6,0.8c1,0.4,1.8,0.8,2.6,1.3c0.4,0.3,0.7,0.5,0.8,0.8
	c0.1,0.3,0.2,0.5,0.2,0.9c0,0.7-0.3,1.2-0.8,1.7c-0.5,0.4-1.2,0.6-2,0.6c-1.9,0-3.6-0.6-5.1-1.7v3.5c1.4,0.8,3,1.2,5,1.2
	c2,0,3.6-0.5,4.8-1.5c1.2-1,1.8-2.3,1.8-3.9c0-1.6-0.5-2.8-1.6-3.7C160.1,116.1,159.6,115.8,159.1,115.5z"/>
<polygon class="st1" points="164,109.8 168.7,109.8 168.7,125.4 172.2,125.4 172.2,109.8 176.8,109.8 176.8,107 164,107 "/>
<path class="st1" d="M188.8,109.7c-1.7,3.5-2.6,5.6-2.8,6.3c-0.4-1.2-1.8-4.2-4-8.9h-4l6.3,11.7v6.7h3.4v-6.8l6.3-11.6h-4
	L188.8,109.7z"/>
<polygon class="st1" points="207.1,122.3 207.1,125.4 196.5,125.4 196.5,107 199.9,107 199.9,122.3 "/>
<rect x="209.7" y="111.5" class="st1" width="3.3" height="13.8"/>
<path class="st1" d="M213.3,107.4c0,0.5-0.2,1-0.6,1.4c-0.4,0.4-0.9,0.6-1.4,0.6c-0.5,0-1-0.2-1.4-0.6c-0.4-0.4-0.6-0.9-0.6-1.4
	c0-0.6,0.2-1,0.6-1.4c0.4-0.4,0.8-0.6,1.4-0.6c0.5,0,1,0.2,1.4,0.6C213.1,106.4,213.3,106.8,213.3,107.4z"/>
<path class="st1" d="M231.8,107v18.4h-3.9l-4.5-7.6c-1.4-2.4-2.6-4.6-3.4-6.6c0.2,1.7,0.3,3.9,0.3,6.6v7.7h-3.4V107h3.9
	c3.7,6.5,5.8,10.2,6.4,11.3c0.5,1,1,2,1.4,2.9c-0.1-1.5-0.2-3.7-0.2-6.5V107H231.8z"/>
<path class="st1" d="M248.3,109.5c-1.7-1.7-4-2.5-6.7-2.5h-6v18.4h6c2.9,0,5.1-0.9,6.8-2.6c1.7-1.7,2.5-4,2.5-6.7
	C251,113.4,250.1,111.2,248.3,109.5z M245.9,120.7c-1,1.2-2.5,1.8-4.4,1.8h-2.4v-12.6h2.4c1.8,0,3.3,0.6,4.3,1.7
	c1.1,1.1,1.6,2.7,1.6,4.5C247.4,118,246.9,119.5,245.9,120.7z"/>
<polygon class="st1" points="265,122.6 265,125.4 254,125.4 254,107 264.9,107 264.9,109.8 257.5,109.8 257.5,114.8 264.1,114.8 
	264.1,117.6 257.5,117.6 257.5,122.6 "/>
<path class="st1" d="M283.3,125.4h-4.1l-3.9-6.4c-0.3,0.5-0.9,1.6-2,3.3c-1,1.7-1.6,2.7-1.8,3h-4.1l5.8-9.3l-5.6-9.1h4l3.5,6l3.4-6
	h4.2l-5.6,9.1L283.3,125.4z"/>
<polygon class="st1" points="1099.8,84.2 1099.8,304.8 860.1,304.8 860.1,131.6 863.1,131.6 863.1,301.8 1096.8,301.8 1096.8,87.2 
	863.1,87.2 863.1,100.5 860.1,100.5 860.1,84.2 "/>
<path class="st1" d="M809.4,115.5c-0.5-0.2-1.1-0.6-2-1c-0.9-0.4-1.6-0.8-2.1-1.2c-0.5-0.4-0.8-0.9-0.8-1.5c0-0.6,0.2-1.1,0.7-1.5
	c0.5-0.4,1.2-0.6,2-0.6c1.5,0,3,0.4,4.4,1.2v-3.3c-1.3-0.6-2.8-0.9-4.6-0.9s-3.3,0.5-4.5,1.4c-1.2,0.9-1.7,2.2-1.7,3.7
	c0,1.5,0.5,2.7,1.5,3.6c0.5,0.4,0.9,0.8,1.4,1c0.4,0.2,1,0.5,1.6,0.8c1,0.4,1.8,0.8,2.6,1.3c0.4,0.3,0.7,0.5,0.8,0.8
	c0.1,0.3,0.2,0.5,0.2,0.9c0,0.7-0.3,1.2-0.8,1.7c-0.5,0.4-1.2,0.6-2,0.6c-1.9,0-3.6-0.6-5.1-1.7v3.5c1.4,0.8,3,1.2,5,1.2
	c2,0,3.6-0.5,4.8-1.5c1.2-1,1.8-2.3,1.8-3.9c0-1.6-0.5-2.8-1.6-3.7C810.4,116.1,809.9,115.8,809.4,115.5z"/>
<polygon class="st1" points="814.3,109.8 819,109.8 819,125.4 822.5,125.4 822.5,109.8 827.1,109.8 827.1,107 814.3,107 "/>
<path class="st1" d="M839.1,109.7c-1.7,3.5-2.6,5.6-2.8,6.3c-0.4-1.2-1.8-4.2-4-8.9h-4l6.3,11.7v6.7h3.4v-6.8l6.3-11.6h-4
	L839.1,109.7z"/>
<polygon class="st1" points="857.4,122.3 857.4,125.4 846.8,125.4 846.8,107 850.2,107 850.2,122.3 "/>
<rect x="860" y="111.5" class="st1" width="3.3" height="13.8"/>
<path class="st1" d="M863.6,107.4c0,0.5-0.2,1-0.6,1.4c-0.4,0.4-0.9,0.6-1.4,0.6c-0.5,0-1-0.2-1.4-0.6c-0.4-0.4-0.6-0.9-0.6-1.4
	c0-0.6,0.2-1,0.6-1.4c0.4-0.4,0.8-0.6,1.4-0.6c0.5,0,1,0.2,1.4,0.6C863.4,106.4,863.6,106.8,863.6,107.4z"/>
<path class="st1" d="M882.1,107v18.4h-3.9l-4.5-7.6c-1.4-2.4-2.6-4.6-3.4-6.6c0.2,1.7,0.3,3.9,0.3,6.6v7.7h-3.4V107h3.9
	c3.7,6.5,5.8,10.2,6.4,11.3c0.5,1,1,2,1.4,2.9c-0.1-1.5-0.2-3.7-0.2-6.5V107H882.1z"/>
<path class="st1" d="M898.6,109.5c-1.7-1.7-4-2.5-6.7-2.5h-6v18.4h6c2.9,0,5.1-0.9,6.8-2.6c1.7-1.7,2.5-4,2.5-6.7
	C901.3,113.4,900.4,111.2,898.6,109.5z M896.2,120.7c-1,1.2-2.5,1.8-4.4,1.8h-2.4v-12.6h2.4c1.8,0,3.3,0.6,4.3,1.7
	c1.1,1.1,1.6,2.7,1.6,4.5C897.7,118,897.2,119.5,896.2,120.7z"/>
<polygon class="st1" points="915.3,122.6 915.3,125.4 904.3,125.4 904.3,107 915.2,107 915.2,109.8 907.8,109.8 907.8,114.8 
	914.4,114.8 914.4,117.6 907.8,117.6 907.8,122.6 "/>
<path class="st1" d="M933.6,125.4h-4.1l-3.9-6.4c-0.3,0.5-0.9,1.6-2,3.3c-1,1.7-1.6,2.7-1.8,3h-4.1l5.8-9.3L918,107h4l3.5,6l3.4-6
	h4.2l-5.6,9.1L933.6,125.4z"/>
<polygon class="st1" points="683.5,84.2 683.5,304.8 536.5,304.8 536.5,131.6 539.5,131.6 539.5,301.8 680.5,301.8 680.5,87.2 
	539.5,87.2 539.5,100.5 536.5,100.5 536.5,84.2 "/>
<path class="st1" d="M485.8,115.5c-0.5-0.2-1.1-0.6-2-1c-0.9-0.4-1.6-0.8-2.1-1.2c-0.5-0.4-0.8-0.9-0.8-1.5c0-0.6,0.2-1.1,0.7-1.5
	c0.5-0.4,1.2-0.6,2-0.6c1.5,0,3,0.4,4.4,1.2v-3.3c-1.3-0.6-2.8-0.9-4.6-0.9c-1.8,0-3.3,0.5-4.5,1.4c-1.2,0.9-1.7,2.2-1.7,3.7
	c0,1.5,0.5,2.7,1.5,3.6c0.5,0.4,0.9,0.8,1.4,1c0.4,0.2,1,0.5,1.6,0.8c1,0.4,1.8,0.8,2.6,1.3c0.4,0.3,0.7,0.5,0.8,0.8
	c0.1,0.3,0.2,0.5,0.2,0.9c0,0.7-0.3,1.2-0.8,1.7c-0.5,0.4-1.2,0.6-2,0.6c-1.9,0-3.6-0.6-5.1-1.7v3.5c1.4,0.8,3,1.2,5,1.2
	s3.6-0.5,4.8-1.5c1.2-1,1.8-2.3,1.8-3.9c0-1.6-0.5-2.8-1.6-3.7C486.8,116.1,486.3,115.8,485.8,115.5z"/>
<polygon class="st1" points="490.7,109.8 495.4,109.8 495.4,125.4 498.9,125.4 498.9,109.8 503.5,109.8 503.5,107 490.7,107 "/>
<path class="st1" d="M515.5,109.7c-1.7,3.5-2.6,5.6-2.8,6.3c-0.4-1.2-1.8-4.2-4-8.9h-4l6.3,11.7v6.7h3.4v-6.8l6.3-11.6h-4
	L515.5,109.7z"/>
<polygon class="st1" points="533.8,122.3 533.8,125.4 523.2,125.4 523.2,107 526.6,107 526.6,122.3 "/>
<rect x="536.4" y="111.5" class="st1" width="3.3" height="13.8"/>
<path class="st1" d="M540,107.4c0,0.5-0.2,1-0.6,1.4c-0.4,0.4-0.9,0.6-1.4,0.6c-0.5,0-1-0.2-1.4-0.6c-0.4-0.4-0.6-0.9-0.6-1.4
	c0-0.6,0.2-1,0.6-1.4c0.4-0.4,0.8-0.6,1.4-0.6c0.5,0,1,0.2,1.4,0.6C539.8,106.4,540,106.8,540,107.4z"/>
<path class="st1" d="M558.5,107v18.4h-3.9l-4.5-7.6c-1.4-2.4-2.6-4.6-3.4-6.6c0.2,1.7,0.3,3.9,0.3,6.6v7.7h-3.4V107h3.9
	c3.7,6.5,5.8,10.2,6.4,11.3c0.5,1,1,2,1.4,2.9c-0.1-1.5-0.2-3.7-0.2-6.5V107H558.5z"/>
<path class="st1" d="M575,109.5c-1.7-1.7-4-2.5-6.7-2.5h-6v18.4h6c2.9,0,5.1-0.9,6.8-2.6c1.7-1.7,2.5-4,2.5-6.7
	C577.7,113.4,576.8,111.2,575,109.5z M572.6,120.7c-1,1.2-2.5,1.8-4.4,1.8h-2.4v-12.6h2.4c1.8,0,3.3,0.6,4.3,1.7
	c1.1,1.1,1.6,2.7,1.6,4.5C574.1,118,573.6,119.5,572.6,120.7z"/>
<polygon class="st1" points="591.7,122.6 591.7,125.4 580.7,125.4 580.7,107 591.6,107 591.6,109.8 584.2,109.8 584.2,114.8 
	590.8,114.8 590.8,117.6 584.2,117.6 584.2,122.6 "/>
<path class="st1" d="M610,125.4h-4.1L602,119c-0.3,0.5-0.9,1.6-2,3.3c-1,1.7-1.6,2.7-1.8,3h-4.1l5.8-9.3l-5.6-9.1h4l3.5,6l3.4-6h4.2
	l-5.6,9.1L610,125.4z"/>
</svg>
