<?xml version="1.0" encoding="utf-8"?>
<!-- Generator: Adobe Illustrator 19.1.0, SVG Export Plug-In . SVG Version: 6.00 Build 0)  -->
<svg version="1.1" id="Layer_1" xmlns="http://www.w3.org/2000/svg" xmlns:xlink="http://www.w3.org/1999/xlink" x="0px" y="0px"
	 viewBox="0 0 16.1 13.1" style="enable-background:new 0 0 16.1 13.1;" xml:space="preserve">
<style type="text/css">
	.st0{fill:#FFFFFF;}
</style>
<g id="twitter_2_">
	<g>
		<path class="st0" d="M16.1,1.6C15.8,1.7,15,2,14.3,2.1c0.5-0.3,1.2-1.1,1.4-1.8C15.2,0.6,14.1,1,13.6,1c0,0,0,0,0,0
			c-0.6-0.6-1.5-1-2.4-1C9.3,0,7.9,1.5,7.9,3.3c0,0.3,0,0.5,0.1,0.7h0C5.4,4,2.5,2.8,0.9,0.6c-1,1.7-0.1,3.7,1,4.4
			C1.5,5,0.8,5,0.5,4.6C0.4,5.8,1,7.3,3,7.9C2.6,8.1,1.9,8,1.6,8c0.1,1,1.5,2.3,3,2.3C4.1,10.9,2.3,12,0,11.6
			c1.5,0.9,3.3,1.5,5.2,1.5c5.4,0,9.5-4.3,9.3-9.7c0,0,0,0,0,0c0,0,0,0,0,0c0,0,0,0,0-0.1C15,2.9,15.7,2.4,16.1,1.6z"/>
	</g>
</g>
</svg>
