<?xml version="1.0" encoding="utf-8"?>
<!-- Generator: Adobe Illustrator 19.1.0, SVG Export Plug-In . SVG Version: 6.00 Build 0)  -->
<svg version="1.1" id="Layer_1" xmlns="http://www.w3.org/2000/svg" xmlns:xlink="http://www.w3.org/1999/xlink" x="0px" y="0px"
	 viewBox="114 -11.2 243.8 38.2" style="enable-background:new 114 -11.2 243.8 38.2;" xml:space="preserve">
<g style="enable-background:new    ;">
	<path style="fill:#FFFFFF;" d="M119.1-5.2h4.5v19.1c0,2,0.7,2.5,1.9,2.5c0.4,0,0.7,0,0.7,0v4c0,0-0.7,0.1-1.4,0.1
		c-2.5,0-5.7-0.6-5.7-5.9V-5.2z"/>
</g>
<g style="enable-background:new    ;">
	<path style="fill:#FFFFFF;" d="M139.4,8.9h0.6V8.6c0-2.4-1.5-3.2-3.5-3.2c-2.6,0-5,1.8-5,1.8l-1.7-3.3c0,0,2.8-2.3,7.2-2.3
		c4.8,0,7.6,2.7,7.6,7.3v11.5h-4.2v-1.5c0-0.7,0.1-1.3,0.1-1.3h-0.1c0,0-1.4,3.2-5.6,3.2c-3.3,0-6.2-2.1-6.2-5.7
		C128.6,9.3,136.5,8.9,139.4,8.9z M136,17.3c2.4,0,4.1-2.6,4.1-4.8v-0.4h-0.8c-2.3,0-6.1,0.3-6.1,2.9
		C133.2,16.1,134.1,17.3,136,17.3z"/>
	<path style="fill:#FFFFFF;" d="M149.1,2h4.6V13c0,2.2,0.6,3.7,2.8,3.7c3.3,0,5.1-2.9,5.1-6.2V2h4.6v18.4h-4.4v-2.1
		c0-0.7,0.1-1.3,0.1-1.3h-0.1c-0.9,1.9-3.2,3.8-6.4,3.8c-3.9,0-6.4-2-6.4-7L149.1,2L149.1,2z"/>
</g>
<g style="enable-background:new    ;">
	<path style="fill:#FFFFFF;" d="M169.6,2h4.4v3.2c0,0.7-0.1,1.3-0.1,1.3h0.1c0.8-2.6,3-4.7,5.8-4.7c0.4,0,0.8,0.1,0.8,0.1v4.5
		c0,0-0.5-0.1-1.1-0.1c-1.9,0-4.1,1.1-5,3.9c-0.3,0.9-0.4,1.9-0.4,3v7.3h-4.6V2H169.6z"/>
	<path style="fill:#FFFFFF;" d="M191.8,1.6c5.3,0,8.1,3.9,8.1,8.7c0,0.5-0.1,1.8-0.1,1.8h-12.7c0.3,3.2,2.8,4.9,5.5,4.9
		c3,0,5.3-2,5.3-2l1.8,3.3c0,0-2.8,2.6-7.4,2.6c-6.1,0-9.9-4.4-9.9-9.6C182.5,5.6,186.3,1.6,191.8,1.6z M195.3,8.9
		c-0.1-2.5-1.6-3.8-3.6-3.8c-2.3,0-4,1.4-4.4,3.8H195.3z"/>
</g>
<g style="enable-background:new    ;">
	<path style="fill:#FFFFFF;" d="M203.1,2h4.4v2.1c0,0.7-0.1,1.3-0.1,1.3h0.1c0.8-1.5,2.8-3.8,6.5-3.8c4.1,0,6.4,2.1,6.4,7v11.8h-4.5
		V9.5c0-2.2-0.6-3.7-2.9-3.7c-2.4,0-4.2,1.5-4.9,3.7c-0.3,0.8-0.3,1.6-0.3,2.4v8.4h-4.6V2H203.1z"/>
</g>
<g style="enable-background:new    ;">
	<path style="fill:#39A8E0;" d="M234.3,1.6c4,0,5.3,2.3,5.3,2.3h0.1c0,0,0-0.5,0-1v-8.1h4.6v25.6H240v-1.5c0-0.7,0.1-1.2,0.1-1.2
		H240c0,0-1.5,3.1-5.8,3.1c-5,0-8.1-3.9-8.1-9.6C226,5.4,229.4,1.6,234.3,1.6z M235.1,17c2.4,0,4.6-1.7,4.6-5.8
		c0-2.8-1.5-5.7-4.6-5.7c-2.5,0-4.6,2.1-4.6,5.7C230.6,14.8,232.4,17,235.1,17z"/>
</g>
<g style="enable-background:new    ;">
	<path style="fill:#39A8E0;" d="M257.3,1.6c5.6,0,10.1,4,10.1,9.6c0,5.7-4.5,9.6-10.1,9.6s-10.1-4-10.1-9.6
		C247.3,5.6,251.8,1.6,257.3,1.6z M257.4,16.9c3,0,5.4-2.3,5.4-5.7s-2.5-5.7-5.4-5.7c-3,0-5.5,2.3-5.5,5.7S254.4,16.9,257.4,16.9z"
		/>
</g>
<g style="enable-background:new    ;">
	<path style="fill:#39A8E0;" d="M279.1,1.6c5.3,0,8.1,3.9,8.1,8.7c0,0.5-0.1,1.8-0.1,1.8h-12.7c0.3,3.2,2.8,4.9,5.5,4.9
		c3,0,5.3-2,5.3-2l1.8,3.3c0,0-2.8,2.6-7.4,2.6c-6.1,0-9.9-4.4-9.9-9.6C269.8,5.6,273.7,1.6,279.1,1.6z M282.7,8.9
		c-0.1-2.5-1.6-3.8-3.6-3.8c-2.3,0-4,1.4-4.4,3.8H282.7z"/>
</g>
<g style="enable-background:new    ;">
	<path style="fill:#39A8E0;" d="M291.9,14.9c0,0,2,2,5,2c1.3,0,2.4-0.6,2.4-1.7c0-2.7-8.9-2.4-8.9-8.3c0-3.4,3.1-5.4,7-5.4
		c4.1,0,6.2,2.1,6.2,2.1L301.9,7c0,0-1.7-1.6-4.5-1.6c-1.2,0-2.3,0.5-2.3,1.7c0,2.6,8.9,2.3,8.9,8.2c0,3.1-2.7,5.5-7,5.5
		c-4.6,0-7.1-2.7-7.1-2.7L291.9,14.9z"/>
</g>
<g>
	<path style="fill:#FFFFFF;" d="M346.1,20.1h-26.4c-3.7,0-6.5-2.9-6.5-6.5v-3.3h4.5v3.3c0,1.1,0.9,2,2,2h26.4c1.1,0,2-0.9,2-2v-3.3
		h4.5v3.3C352.7,17.3,349.8,20.1,346.1,20.1z"/>
</g>
</svg>
